<svg xmlns="http://www.w3.org/2000/svg" width="379.873" height="324.585" viewBox="0 0 379.873 324.585">
    <g data-name="Group 275">
        <path data-name="Path 1142" d="M340.461 633.851c-.864-.7-1.737-1.375-2.617-2.041L191.65 778.005q1 1.32 2.041 2.617l146.77-146.771z" transform="translate(-170.639 -562.544)" style="fill:#6b27e8"/>
        <path data-name="Path 1143" d="M160.738 471.074a93.525 93.525 0 0 0-3.653-1L29.91 597.246c.315 1.222.645 2.442 1 3.653z" transform="translate(-26.631 -418.536)" style="fill:#6b27e8"/>
        <path data-name="Path 1144" d="M271.114 567.607q-1.449-.9-2.919-1.737L125.7 708.363q.845 1.47 1.738 2.921z" transform="translate(-111.919 -503.833)" style="fill:#6b27e8"/>
        <path data-name="Path 1145" d="M210.742 512.776q-1.615-.73-3.252-1.406L71.21 647.652q.673 1.635 1.405 3.252l138.127-138.128z" transform="translate(-63.403 -455.308)" style="fill:#6b27e8"/>
        <path data-name="Path 1146" d="M123.456 445.454q-2.072-.3-4.152-.5L4.78 559.473c.143 1.387.308 2.772.505 4.153z" transform="translate(-4.256 -396.17)" style="fill:#6b27e8"/>
        <path data-name="Path 1147" d="M416.9 709.439c-.389-.389-.785-.767-1.18-1.149L268.13 855.878c.382.394.76.789 1.149 1.179s.785.769 1.179 1.15l147.587-147.588c-.381-.394-.76-.79-1.145-1.18z" transform="translate(-238.734 -630.639)" style="fill:#6b27e8"/>
        <path data-name="Path 1148" d="M102.068 440.16q-2.44.053-4.878.221L.22 537.352q-.166 2.437-.22 4.878z" transform="translate(0 -391.905)" style="fill:#6b27e8"/>
        <path data-name="Path 1149" d="m23.01 542.033 78.862-78.863q-3.154.709-6.27 1.614l-70.98 70.98q-.9 3.113-1.613 6.27z" transform="translate(-20.487 -412.392)" style="fill:#6b27e8"/>
        <path data-name="Path 1150" d="M1074.528 1417.719q.168-2.437.221-4.879L972.68 1514.91q2.44-.054 4.878-.222z" transform="translate(-866.042 -1257.947)" style="fill:#6b27e8"/>
        <path data-name="Path 1151" d="M935.088 1260.732c-.143-1.386-.308-2.77-.505-4.152L816.41 1374.751c1.381.2 2.766.363 4.153.505l114.525-114.525z" transform="translate(-726.905 -1118.819)" style="fill:#6b27e8"/>
        <path data-name="Path 1152" d="M168.365 571.6a105.171 105.171 0 0 0-36.925 36.927z" transform="translate(-117.03 -508.935)" style="fill:#6b27e8"/>
        <path data-name="Path 1153" d="M1238.59 1607.78q.9-3.113 1.613-6.27l-78.863 78.863q3.154-.71 6.27-1.614z" transform="translate(-1034.019 -1425.933)" style="fill:#6b27e8"/>
        <path data-name="Path 1154" d="M1435.43 1912.518a105.179 105.179 0 0 0 36.927-36.928l-36.927 36.928z" transform="translate(-1278.06 -1669.965)" style="fill:#6b27e8"/>
        <path data-name="Path 1155" d="M597.024 894.7q-.844-1.47-1.737-2.919L451.61 1035.457q1.449.895 2.921 1.737L597.024 894.7z" transform="translate(-402.099 -794.013)" style="fill:#6b27e8"/>
        <path data-name="Path 1156" d="M503.49 797.456q-1-1.319-2.04-2.616L354.68 941.611q1.294 1.046 2.616 2.04z" transform="translate(-315.796 -707.7)" style="fill:#6b27e8"/>
        <path data-name="Path 1157" d="M811.268 1124.263a107.751 107.751 0 0 0-1-3.653L680.44 1250.435c1.211.36 2.431.688 3.653 1z" transform="translate(-605.841 -997.755)" style="fill:#6b27e8"/>
        <path data-name="Path 1158" d="M699.283 1003.162q-.673-1.635-1.405-3.252L559.75 1138.038q1.617.73 3.251 1.4l136.282-136.281z" transform="translate(-498.383 -890.288)" style="fill:#6b27e8"/>
    </g>
    <g data-name="Group 278">
        <g data-name="Group 276">
            <path data-name="Path 1159" d="M1249.651 1614.884a40.726 40.726 0 0 1-5.03-2.968c-.806-.558-1.491-1.16-2.264-1.748-.955-.727-1.24-.972-.919-2.174 1.39.291 1.4.491 2.354 1.442a18.394 18.394 0 0 0 2.292 1.7 39.583 39.583 0 0 0 5.136 2.864 69.573 69.573 0 0 0 11.675 4.185 124.885 124.885 0 0 0 27.893 3.938c13.332.466 29.318-.9 42.039-5.478a59.92 59.92 0 0 0 5.63-2.383c.949-.452 1.847-1.18 2.616-1.513.956-.414 2.014-.04 1.261.967-.971 1.3-9.22 4.431-11.118 5.042a93.457 93.457 0 0 1-12.768 3.084 137.327 137.327 0 0 1-29.7 1.681c-12.273-.569-27.909-3.003-39.097-8.639zm73.344-9.046c-20.842 4.367-49.453 1.9-69.219-4.6a79.656 79.656 0 0 1-9.318-3.744c-1.225-.535-2-.506-1.756-2.022 1.643.02 4.178 1.563 5.884 2.267a84.99 84.99 0 0 0 6.156 2.256 118.861 118.861 0 0 0 13.269 3.429c16.749 3.382 38.565 4.507 55.542.776a39.286 39.286 0 0 0 13.813-5.372c.765-.508 1.067-1.12 1.707-1.571.6-.422 1.576-.469 1.425.484-.263 1.657-6.157 4.549-7.72 5.2a54.8 54.8 0 0 1-9.782 2.891zm-57.011-24.029c-1.87 1.059-7.662 4.789-9.274 5.216 3.027 3.506 13.828 6.647 18.406 7.638a103.555 103.555 0 0 0 23.6 2.171 88.505 88.505 0 0 0 22.6-3.151c4.76-1.4 9.232-3.195 13.043-6.408.566-.477 1.077-1.4 1.609-1.664.87-.431 1.3.474.839 1.26a21.247 21.247 0 0 1-3.5 3.084c-9.266 6.57-26.127 8.359-36.809 8.383-11.847.027-31.908-2.448-41.227-10.388l-15.438 8.124c-.349 1.889-2.108 2.118-2.8 11.97-.609 8.678.116 16.949 3.8 24.9.866 1.869 4.024 7.928 5.521 9.024l.212-.538c.378-.588.966-.434 1.208.163a9.966 9.966 0 0 1 .249 1.562 25.749 25.749 0 0 1 .218 3.467c3.274 1.2 6.327 2.7 9.723 3.81a136.443 136.443 0 0 0 34.057 6.612c14.992 1.035 33.3-.045 46.864-7.073l-.49-15.115c-1.047-.291-1.6.232-2.587.634-14.526 5.879-32.017 7.762-47.406 6.614-13.08-.976-28.37-4.262-39.754-11.318-.745-.463-1.45-.915-2.17-1.419s-1.894-.936-1.088-1.933c.986-.263 1.557.481 2.4 1.037a66.36 66.36 0 0 0 17.432 7.951c21.641 6.48 47.644 6.141 68.956-1.87 1.477-.556 3.794-1.955 5.281-1.449 2.015-9.1 5.1-17.65 4.985-27.133a34.937 34.937 0 0 0-2.483-13.605 26.006 26.006 0 0 0-2.8-5.2c-1.151-1.527-3.66-3.941-3.9-4.3a71.187 71.187 0 0 1-7.615-3.706c-1.476.662-2.263 4.329-12.391 7.082-12.9 3.506-29.851 2.357-42.683-1.457a63.483 63.483 0 0 1-3.632-1.2c-1.04-.373-2.624-.611-2.956-1.775z" transform="translate(-1101.239 -1406.033)" style="fill-rule:evenodd;fill:#fff"/>
            <path data-name="Path 1160" d="m1338.665 2216.669-.285 8.592.017.425c1.528.5 3.255 1.359 4.8 1.962a138.557 138.557 0 0 0 39.057 8.667c14.094 1.1 34.483.031 47.142-6.865l-.01-16.371c-1.511.523-3.183 1.465-4.789 2.068a74.3 74.3 0 0 1-16.267 4.02c-18.61 2.666-41.9.375-59.783-5.692a184.904 184.904 0 0 1-4.972-1.786c-1.61-.6-3.221-1.433-4.8-1.98-.018 1.364.166 6.01-.11 6.96z" transform="translate(-1191.65 -1967.454)" style="fill-rule:evenodd;fill:#fff"/>
            <path data-name="Path 1161" d="M1324.17 2386.728c1.38 1.867 18.043 5.757 21.138 6.342 20.6 3.891 53.391 4.687 71.4-5.75.028-.8-.089-3.051.2-3.589l-.132-9.979c-1.545.458-3.334 1.434-4.951 2.019-22.487 8.138-54.338 5.437-76.467-2.258-1.674-.582-3.3-1.185-4.966-1.794-1.557-.568-3.3-1.485-4.834-1.92-.039 5.492-1.039 11.427-1.386 16.928z" transform="translate(-1178.997 -2109.993)" style="fill-rule:evenodd;fill:#fff"/>
            <path data-name="Path 1162" d="M754.708 1335.781c-1.117-.8-1.757-.539-3-1.943-1.081-1.219-.984-2.212-1.287-3.7-5.345-.213-11.11-.09-16.5-.1-5.426-.014-10.85-.076-16.274-.09-2.454-.007-31.284-.372-32.813-.105l-39.565 60.368 35.352-.708a34.706 34.706 0 0 0 2.335-5.541c-2.161.021-22.731.708-23.131.517a1.957 1.957 0 0 1-.717-1.727c.136-.635 21.609-35.286 22.065-36.019 1.388-2.229 4.8-7.588 5.975-9.749.792-1.461 2.878-1.055 4.3-1.054 21.071.009 42.213-.216 63.26-.149z" transform="translate(-574.527 -1183.961)" style="fill-rule:evenodd;fill:#fff"/>
            <path data-name="Path 1163" d="M1926.35 1340.479c5.9-.211 12.066-.073 17.992-.081l36-.088c2.983-.005 6-.052 8.976-.023 1.908.019 1.878.457 2.674 1.952.525.982 1.077 1.962 1.61 2.941l19.082 34.984c1.847 3.376 1.734 3.4-3.09 3.467-2.969.044-6 .127-8.964.244a48.643 48.643 0 0 0 2.607 6.293l27.285-.6c-.475-1.276-3.325-5.284-4.246-6.722-1.434-2.239-2.885-4.472-4.328-6.705-2.883-4.461-5.736-8.98-8.66-13.408s-5.711-9-8.66-13.4c-1.476-2.206-2.854-4.5-4.33-6.705a71.572 71.572 0 0 1-4.345-6.839c-.571-.482-.981-.308-1.819-.309-.736 0-1.471 0-2.207-.005l-12.827-.078c-5.655-.02-11.31-.079-16.964-.1-11.289-.032-22.71-.32-33.978-.181l-.78.148a9.5 9.5 0 0 1 .03 2.8c-.242.856-.787 1.589-1.056 2.414z" transform="translate(-1715.159 -1188.708)" style="fill-rule:evenodd;fill:#fff"/>
            <path data-name="Path 1164" d="M1027.192 1471.047a6.518 6.518 0 0 0-5.463 2.011c-1.386 1.57-1.761 5.345-2.967 4.6-.734-.723.325-2.258.531-3.263-1.672.226-2.48 4.6-2.761 6.021-1.537 7.747-2.986 15.514-2.765 23.52 1.408-.259 3.055-.742 4.556-1.039l9.882-1.42a7.011 7.011 0 0 0 2.545-.227c.609-.34 1.216-.728 1.843-1.054 1.589-.827 14.6-7.58 14.889-7.9-.694-1.822-2.9-.915-4.357.911-.434.545-.43 1.005-.984 1.476-1.863.043-2.9-2.543-2.281-4.042 1.149-2.793 4.054-6.82 4.542-9.254.161-.807.579-2.137.662-2.8.092-.749-.412-2.414 1.066-1.875.977 1.105-.3 4.483-.707 5.823-.376 1.226-.781 1.324.159 2.374.7.782 1.352 1.168 2.315.378 2.54-2.078.955-16.249-3.745-15.089-2.564.633-6.066 4.624-7.49 6.755-.864 1.293-2.019 3.012-2.956 4.218-.35.451-1.24 1.852-1.885.964-.582-.8 2.062-3.257 2.6-4.245 3.2-5.841 3.486-2.558 2.153-6.724a3.9 3.9 0 0 0-4.345-2.826c-3.88.563-5.945 10.783-7.824 9.9-.943-.442.255-1.748.534-2.382.68-1.535 1.745-3.286 2.253-4.811z" transform="translate(-902.605 -1307.325)" style="fill-rule:evenodd;fill:#fff"/>
            <path data-name="Path 1165" d="M2136.98 1409.39c.753.731 5.237 5.954 4.439 6.919-.781.944-1.76-1.25-2.8-2.655-1.819-2.459-3.218-4.314-6.244-5.616-1.623-.7-3.234-1.388-4.052.686a17.95 17.95 0 0 0-.93 10.229c.163.964.977 3.706 2.144 3.772 1.02.058 1.534-1.913 2.445-3.423-.557-1.158-2.239-2.335-1.483-3.31 1.013-.372 1.662 1.089 2.245 1.881.63.857 1.3 1.773 1.945 2.606a20.629 20.629 0 0 0 2.148 2.4c.574.549 2.3 1.656 2.571 1.98a14.25 14.25 0 0 1 .33 3.421c-.429 1.68-1.7 1.044-2.945.935.967.74 6.856 2.079 8.516 2.57 1.4.414 2.753.875 4.122 1.4.856.326 3.285 1.58 3.994 1.357 2.08-.652 15.179-5.3 15.918-6.18.111-1-2.438-5.418-3.139-6.434a55.1 55.1 0 0 0-4.2-5.452c-.743-.822-1.456-1.865-2.194-2.632-1.334-1.387-6.153-7.371-6.7-7.72-1.87 1.076-.282 2.8-.954 3.676-1.053 1.373-1.688-1.841-4.2-3.827-.556-.44-1.281-1.321-2.115-1.114-.532.133-1.342 1.522-1.4 2.076-.057.523.174.57.51 1.08.535.81 3.126 4.952 3.081 5.49-.1 1.134-1.247.809-1.8-.294a41.669 41.669 0 0 0-2.522-4.372c-.508-.776-2.687-3.115-3.583-3.2-1.864-.185-2.347 2.891-3.147 3.751z" transform="translate(-1893.859 -1250.813)" style="fill-rule:evenodd;fill:#fff"/>
            <path data-name="Path 1166" d="M1315.113 2544.511c-.168 7.341-2.431 7.578 5.572 9.22a120.551 120.551 0 0 0 13.444 2.013 286.748 286.748 0 0 0 29.887.672c19.323-.89 27.365-1.43 43.648-10.378 1.59-.874 3.237-2.143 4.816-2.912a17.346 17.346 0 0 0-3.5-2.236c-4.644 3.426-15.076 5.928-20.8 6.908a136.771 136.771 0 0 1-25.965 1.727 158.041 158.041 0 0 1-25.1-2.56 133.023 133.023 0 0 1-11.21-2.587c-3.628-1-6.871-2.413-10.353-3.488-.074.832.056 3.081-.439 3.621z" transform="translate(-1170.559 -2262.326)" style="fill-rule:evenodd;fill:#fff"/>
            <path data-name="Path 1167" d="m2213.61 1700.558 5.249.144 1.559.035a60.955 60.955 0 0 1 3.834-4.863 44.907 44.907 0 0 0 3.545-5 27.722 27.722 0 0 0 3.808-13.484 37.965 37.965 0 0 0-7.795-22.46c-.6-.754-1.865-1.686-2.209-2.19l-4.65-1.264a18.367 18.367 0 0 0 1.255 2.438c2.946 6.006 4.315 17.336 3.887 23.581-.379 5.544-3.172 12.9-5.691 17.983-.502 1.022-2.635 4.44-2.792 5.08z" transform="translate(-1970.926 -1470.416)" style="fill-rule:evenodd;fill:#fff"/>
            <path data-name="Path 1168" d="M2291.99 1719.56c3.905-.138 3.514.949 6.453-1.936 3.938-3.868 9-6.393 11.88-13.226 3.786-8.976 1.444-18.348-3.548-26.18-1.709-1.408-9.858-5.04-12.165-5.717a20.74 20.74 0 0 0 1.7 2.432 38.25 38.25 0 0 1 6.518 22.423 30.424 30.424 0 0 1-7.187 17.609c-.574.707-3.43 4.105-3.651 4.595z" transform="translate(-2040.713 -1489.14)" style="fill-rule:evenodd;fill:#fff"/>
            <path data-name="Path 1169" d="M1634.021 1368.69c-.226 3.316.944 4.574-2.36 8.7-1.311 1.639-4.645 5.087-5.32 5.982a69.185 69.185 0 0 0 7.383 2.4 41.217 41.217 0 0 0 8.542 1.4 16.51 16.51 0 0 0 8.273-1.382c2.042-.792 4.84-2.017 6.272-3.655-.515-.569-2.67-1.538-4.469-3.666-.548-.649-4.061-4.095-2.376-4.868-.39-.355.078-.076-.5-.282a12.962 12.962 0 0 1-3.362-1.306c-2.781-1.414-2.78-.763-4.47-.838-3.578-.156-4.6-1.763-6.878-3.756l-.738 1.27z" transform="translate(-1448.04 -1217.507)" style="fill-rule:evenodd;fill:#fff"/>
            <path data-name="Path 1170" d="M1149.519 1749.807c.161 2.353-1.5 5.22.214 14.751 1.915 10.657 5.427 19.22 12.993 27a28.944 28.944 0 0 0 4.332 3.516l1.509-.484-.1-3.524c-2.243-.768-5.32-6.476-6.419-8.626-5.17-10.124-5.721-21.066-4.268-32.146a26.571 26.571 0 0 1 .64-3.053c.157-.611 1-2.347.8-2.786-1.558.7-3.405 1.81-4.953 2.636-.815.434-1.611.841-2.408 1.316a25.144 25.144 0 0 1-2.339 1.4z" transform="translate(-1022.989 -1553.211)" style="fill-rule:evenodd;fill:#fff"/>
            <path data-name="Path 1171" d="m838.56 1436.045 13.587-.288 3.529-8.474c-3.018-.252-8.9.873-7.93-1.016.349-.683 3.3-.453 4.073-.458 1.4-.012 3.106.011 4.482-.107 1-2.173 3.149-7.1 3.487-9.3-1.192-.062-2.49-.008-3.694 0-.8 0-3.174.37-2.854-.92.218-.88 2.538-.582 3.267-.585 1.27-.007 2.595.026 3.857-.033.306-.8 1.135-1.8 2.008-3.912a37.844 37.844 0 0 0 1.729-4.348c-.636-.008-1.758-.018-1.351-1.04.254-.635 1.484-.43 2.058-.455l2.1-5.238-6.128-.013-5.536 8.931c-1.841 3.022-3.712 6.036-5.567 9.052s-3.7 6.047-5.567 9.052c-.82 1.319-5.276 8.346-5.55 9.152z" transform="translate(-746.626 -1246.381)" style="fill-rule:evenodd;fill:#fff"/>
            <path data-name="Path 1172" d="M1083.24 1808.432a55.835 55.835 0 0 0-1.014 6.522 45.82 45.82 0 0 0 .331 7.282 40.04 40.04 0 0 0 3.169 12.008 47.777 47.777 0 0 0 5.451 9.584c1.441 1.849 5.915 6.58 8.085 7.147l6.545-1.683-4.19-3.631c-8.857-8.661-14.2-25.48-13.547-37.6.045-.849.578-2.661.209-3.318z" transform="translate(-963.551 -1606.882)" style="fill-rule:evenodd;fill:#fff"/>
            <path data-name="Path 1173" d="M802.223 249.23c-32.844 5.2-65.793 10.8-98.654 16.126-2.31.375-4.679.888-6.992 1.116-1.661.163-5.222.179-4.9 2.648.172 1.309 1.833 4.3 2.4 5.887.708 1.971 1.578 3.96 2.362 5.91l28.235 70.242c.721 1.79 1.722 3.93 2.307 5.706.255.777 1.632 5.263 2.737 5 1.146-.271-.978-4.691-1.257-5.258-.845-1.715-1.566-3.886-2.294-5.705l-28.232-70.242c-.777-1.936-1.538-3.808-2.266-5.764-.5-1.346-2.522-4.565-2.019-5.766.593-1.416 4.777-1.4 6.184-1.606 2.3-.341 4.711-.827 7.034-1.206l84.636-13.844c1.3-.209 9.847-1.413 10.634-1.819.75-.379.419-.885.085-1.425z" transform="translate(-615.831 -221.907)" style="fill-rule:evenodd;fill:#fff"/>
            <path data-name="Path 1174" d="m1518.111 1546.829-6.591 4.521c1.6 1.381 11.607 3.732 14.1 4.2a91.094 91.094 0 0 0 16.826 1.548 66.766 66.766 0 0 0 16.389-1.863c3.324-.865 10.214-3.318 11.74-6.619a50.8 50.8 0 0 0-5.661-2.864c-.634.317-1.494 1.105-2.161 1.542a25.248 25.248 0 0 1-2.359 1.364c-12.375 6.255-30.456 4.117-42.283-1.829z" transform="translate(-1345.808 -1376.286)" style="fill-rule:evenodd;fill:#fff"/>
            <path data-name="Path 1175" d="M2320.277 1398.887c2.3-2.994 2.461-2.67 4.814.022 2.275 2.6 1.1 2.9 6.311 2.557-.333-.976-1.479-2.019-1.143-3.08.931-.8 1.332.184 1.724.943a23.8 23.8 0 0 0 1.181 2.126c1.207.093 3.557-.166 4.547.146.43.481.427.734 0 1.218-.977.315-2.595.053-3.695.168l4.268 7.886c1.031.013 5.556-.383 5.907.4.677 1.512-3.156 1.069-4.984 1.071.1.987 3.159 5.519 3.649 7.024.662.03 2.813-.259 3.158.3.828 1.332-1.51 1.2-2.165 1.206.177.856 3.345 6.294 4.007 7.516l7.813-.164-17.406-32.063-20.825.068a9.6 9.6 0 0 0 1.4 1.213c.5.463.9 1 1.438 1.446z" transform="translate(-2063.373 -1243.096)" style="fill-rule:evenodd;fill:#fff"/>
            <path data-name="Path 1176" d="M2353.191 1776.858c1.75-.033 3.424-.378 5.052-.464.568-.731 10.48-5.693 13.223-13.566 1.576-4.52.35-12.807-1.035-17.609-.673-2.335-2.085-3.585-2.183-4.46a47.299 47.299 0 0 0-3.207-2.015c-.653-.374-2.939-1.522-3.325-1.864.278 1.426 3.017 6.264 3.809 11.035a26.454 26.454 0 0 1-1.14 13.064c-3.411 9.33-12.171 13.6-13.784 15.943z" transform="translate(-2092.897 -1546.462)" style="fill-rule:evenodd;fill:#fff"/>
            <path data-name="Path 1177" d="m2166.993 1676.683.09.367 1.846.064c.3-.442.575-.524.972-1.125 3.813-5.777 7.686-15.708 8.118-22.182a53.031 53.031 0 0 0-1.375-14.883c-2.47-10.576-4.057-9.834-4.705-11.486l-6.179-2.148c.221.555 2.17 2.243 3.2 4.5a47.859 47.859 0 0 1 2.444 5.694 43.564 43.564 0 0 1 1.54 14.724 77.914 77.914 0 0 1-2.338 13.808c-.429 1.796-2.876 11.892-3.613 12.667z" transform="translate(-1928.322 -1447.106)" style="fill-rule:evenodd;fill:#fff"/>
            <path data-name="Path 1178" d="M1028.965 1854.854c-.281 2.017-.8 3.965-1.028 6.044a36.15 36.15 0 0 0 7.447 26.753c1.2 1.564 5.515 6.508 7.44 6.49l5.706-.9a18.1 18.1 0 0 0-2.006-1.56c-5.063-4.026-8.061-9.242-10.706-15.087a40.678 40.678 0 0 1-3.166-11.583 50.625 50.625 0 0 1-.459-6.876 25.53 25.53 0 0 1 .189-3.581c.09-.659.6-2.361.4-2.867a30.571 30.571 0 0 0-3.817 3.167z" transform="translate(-915.019 -1648.685)" style="fill-rule:evenodd;fill:#fff"/>
            <path data-name="Path 1179" d="M642.27 1889.878a59.656 59.656 0 0 0 2.662 6.418c1.008.2 12.745-.238 14.884-.269 2.159-.03 13.477-.2 14.751-.392l2.746-6.475z" transform="translate(-571.856 -1682.047)" style="fill-rule:evenodd;fill:#fff"/>
            <path data-name="Path 1180" d="M964.146 1900.639c.144 1.122-1.687 5.133-.688 12.028a26.553 26.553 0 0 0 9.466 17.012 42.049 42.049 0 0 0 3.836 2.784c2.149 1.371 3.106.945 5.589.918l.28.019c-.485-.671-3.619-2.6-6.511-6.775-6.146-8.875-8.505-17.745-6.912-28.447.106-.711.636-2.159.288-2.736a9.443 9.443 0 0 1-.731.622c-.549.492-.225.433-.543.843-.005.001-3.263 2.26-4.074 3.732z" transform="translate(-857.564 -1687.638)" style="fill-rule:evenodd;fill:#fff"/>
            <path data-name="Path 1181" d="M1585.02 1512.983c1.176 1.134 8.193 3.188 10.05 3.616a51.507 51.507 0 0 0 24.5-.017c2.183-.581 7.856-2.724 9.192-4.462l-7.235-3.259c-1.117.549-.976 1.733-7.822 4.487-10.084 4.055-22.74-2.565-25.2-2.861-.377-.046-3.105 2.113-3.485 2.496z" transform="translate(-1411.25 -1343.44)" style="fill-rule:evenodd;fill:#fff"/>
            <path data-name="Path 1182" d="M2632.59 1846.708c.073.334 2.052 6.246 2.078 6.289l22.055-.474 2.648-6.363z" transform="translate(-2343.971 -1643.761)" style="fill-rule:evenodd;fill:#fff"/>
            <path data-name="Path 1183" d="M923.958 1971.876c.337 2.037-1.055 7.579 1.83 14.7.93 2.3 3.842 7.144 5.755 8.867.4.356.91.607 1.271.975 1.271.168 2.5.343 3.8.469 1.331.129 2.781.108 4.059.262a22.064 22.064 0 0 0-3.115-2.337 27.219 27.219 0 0 1-7.533-9.018c-2.777-5.068-4.1-13.041-2.855-18.659l-.285-.258c-.409 1.186-2.381 3.37-2.923 5z" transform="translate(-822.619 -1751.246)" style="fill-rule:evenodd;fill:#fff"/>
            <path data-name="Path 1184" d="M2454.34 1823.863c2.388-.861 5.907-1.324 8.073-2.718.512-.816 2.739-2.378 4.544-5.473a22.44 22.44 0 0 0 2.993-7.066 17.691 17.691 0 0 0-2.015-12.184 17.884 17.884 0 0 1-1.893-3.332c-.112-.031-2.067-1.879-2.592-2.221a11.312 11.312 0 0 0 .761 2.109c.237.742.426 1.516.614 2.275 1.071 4.321 1.873 11.688.5 15.888-1.2 3.683-4.575 7.672-7.653 10.14-.642.519-3.004 2.136-3.332 2.582z" transform="translate(-2185.264 -1594.533)" style="fill-rule:evenodd;fill:#fff"/>
            <path data-name="Path 1185" d="m789.872 1741.628-4.792 7.851 15.682-.38 3.2-7.769z" transform="translate(-699.009 -1550.424)" style="fill-rule:evenodd;fill:#fff"/>
            <path data-name="Path 1186" d="m1988.906 1467.326 11.482-.045a37.944 37.944 0 0 1-.294-4.148c.067-1.249.661-2.724-.055-3.815l-13.88-.008c-.008.636 1.5 4.822 1.889 6.047.197.62.367 1.643.858 1.969z" transform="translate(-1768.411 -1299.323)" style="fill-rule:evenodd;fill:#fff"/>
            <path data-name="Path 1187" d="m1409.8 1460.1-.292 8.107 10.581-.043a64.411 64.411 0 0 0-.177-8.054 85.21 85.21 0 0 0-10.112-.01z" transform="translate(-1254.981 -1299.901)" style="fill-rule:evenodd;fill:#fff"/>
            <path data-name="Path 1188" d="M1519.193 1468.546c1.6.087 3.353 0 4.963 0 2.015.007 1.919-.451 3.406-1.575a30.038 30.038 0 0 0 2.628-2.338c.788-.763.572-.753.519-1.892-.037-.766-.065-1.54-.116-2.306l-11.573-.009.173 8.116z" transform="translate(-1352.485 -1300.32)" style="fill-rule:evenodd;fill:#fff"/>
            <path data-name="Path 1189" d="M1406.893 1557.027c3.655-.074 2.55.065 6.091-1.922 1.107-.622 4.17-2.689 5.021-2.991l-.131-3.835c-1.013-.153-8.158-.01-9.874-.023-1.385-.01-.85.231-1.006 3.858a48.954 48.954 0 0 0-.101 4.913z" transform="translate(-1252.619 -1378.475)" style="fill-rule:evenodd;fill:#fff"/>
            <path data-name="Path 1190" d="M2573.612 1702.845h-1.692a42.423 42.423 0 0 0 2.8 6.8l11.948-.28c.03-.468-3.033-6-3.536-6.7l-7.787.1c.158 1.261 3.79 5.48 1.592 5.379-.739-.034-1.444-1.806-1.779-2.447-.48-.907-1.146-1.948-1.546-2.852z" transform="translate(-2289.953 -1516.002)" style="fill-rule:evenodd;fill:#fff"/>
            <path data-name="Path 1191" d="m1967.334 1402.6 13.772.039a23.388 23.388 0 0 0-1.157-2.742c-.276-.621-.782-2.277-1.306-2.539l-12.994.025a42.737 42.737 0 0 0 1.685 5.217z" transform="translate(-1750.15 -1244.164)" style="fill-rule:evenodd;fill:#fff"/>
            <path data-name="Path 1192" d="M2049.776 1554.064c.5-1.655 2.309-.75 2.914-.691a.6.6 0 0 0 .5-.08c.577-2.576-3.144-3.366-5.4-7.279a2.354 2.354 0 0 0-.618 2.1 11.45 11.45 0 0 1 .925 2.312 4.3 4.3 0 0 1-1.385.24l-.687-1.55c-1.379.572-2.062 1.094-3.392-.312-1.138-1.2-1.11-2.216-1.741-3.087l-9.505.039c1.082 1.044 10.771 5.528 13.308 6.5a39.677 39.677 0 0 0 5.081 1.808z" transform="translate(-1808.674 -1376.259)" style="fill-rule:evenodd;fill:#fff"/>
            <path data-name="Path 1193" d="M1517.219 1403.167h11.594l-.224-5.19c-.943-.257-9.915-.106-11.479-.038l.109 5.226z" transform="translate(-1350.785 -1244.587)" style="fill-rule:evenodd;fill:#fff"/>
            <path data-name="Path 1194" d="M1311.03 1462.26a8.236 8.236 0 0 1 2.454 2.714 11.722 11.722 0 0 1 1.384 3.849l5.441.005.253-8.18-9.454.028z" transform="translate(-1167.298 -1300.516)" style="fill-rule:evenodd;fill:#fff"/>
            <path data-name="Path 1195" d="M1197.66 1404.49c1.551.011 10.371.164 11.019-.113l.284-5.167-9.83.023z" transform="translate(-1066.357 -1245.812)" style="fill-rule:evenodd;fill:#fff"/>
            <path data-name="Path 1196" d="m1412.03 1404.28 10.047-.025a43.369 43.369 0 0 0-.043-5.205l-9.79-.04z" transform="translate(-1257.225 -1245.633)" style="fill-rule:evenodd;fill:#fff"/>
            <path data-name="Path 1197" d="M2560.872 1882.468a29.617 29.617 0 0 0 5.22-3.176c1.835-1.357 3.151-2.6 3.549-4.981.744-4.458-2.1-9.044-4.139-12.771a26.719 26.719 0 0 0 .71 2.666c1.193 4.857-.116 9.912-2.551 14.173a22.655 22.655 0 0 1-1.371 2.213c-.295.394-1.508 1.561-1.417 1.875z" transform="translate(-2280.112 -1657.455)" style="fill-rule:evenodd;fill:#fff"/>
            <path data-name="Path 1198" d="m1092.61 1404.883 9.969-.028 1.426-5.255-9.487.02c-.018 1.288-1.528 3.82-1.908 5.263z" transform="translate(-972.824 -1246.159)" style="fill-rule:evenodd;fill:#fff"/>
            <path data-name="Path 1199" d="M1845.23 1400.517c.714.289.833 1.729 1.578 2.279.569.421 2.969.169 3.792.167 2.607-.008 5.217 0 7.823-.019a47.6 47.6 0 0 0-1.644-5.265l-4.014.011c-.713.253-2.2 1.447-3.22 1.92a8.9 8.9 0 0 1-1.943.66c-.667.138-1.922.066-2.372.247z" transform="translate(-1642.932 -1244.449)" style="fill-rule:evenodd;fill:#fff"/>
            <path data-name="Path 1200" d="m1312.32 1404.438 9.4-.01.179-5.258h-9.288z" transform="translate(-1168.446 -1245.776)" style="fill-rule:evenodd;fill:#fff"/>
            <path data-name="Path 1201" d="M903.18 2065.637c-.05-.156-1.225-1.459-1.488-1.811a27.417 27.417 0 0 1-5.467-12.049c-.708-3.919-.289-3.986-.6-6.5-1.154 4.276-2.811 7.766-.756 12.958a13.274 13.274 0 0 0 3.035 4.824 10.668 10.668 0 0 0 5.276 2.578z" transform="translate(-795.893 -1821.051)" style="fill-rule:evenodd;fill:#fff"/>
            <path data-name="Path 1202" d="m1887.813 1466.048-2.366-7.316c-1.571-.316-8.538-.086-10.558-.038a2.319 2.319 0 0 0 .583.755l2.071 1.651a55.751 55.751 0 0 0 10.27 4.948z" transform="translate(-1669.34 -1298.662)" style="fill-rule:evenodd;fill:#fff"/>
            <path data-name="Path 1203" d="M1338.67 1557.758a34.322 34.322 0 0 0 5.944-.173l.283-8.654-5.2.031c.234 3.851.476 5.227-1.027 8.796z" transform="translate(-1191.908 -1379.117)" style="fill-rule:evenodd;fill:#fff"/>
            <path data-name="Path 1204" d="M2103.5 1402.335c.581-.747.522-1.511 1.378-2.385 2.129-2.17 6.284.193 8.136 1.774.489-.688.575-2.687 2.75-3.99 2.052-1.23 3.1.605 4.543 1.482l1.193-2.027h-20.268a33.185 33.185 0 0 0 2.268 5.146z" transform="translate(-1870.866 -1244.013)" style="fill-rule:evenodd;fill:#fff"/>
            <path data-name="Path 1205" d="m2181.917 2241.044-.016 1.62c1-.062 2.078-1.107 2.905-1.7l8.081-5.3c1.439-.909 11.187-5.48 11.376-6.431.361-1.812-2.271-.13-2.764.149-.941.532-1.888 1.045-2.822 1.591-2.006 1.17-3.973 1.959-5.923 3.041-3.286 1.821-6.328 4.224-9.333 6.25-.542.368-.847.31-1.504.78z" transform="translate(-1942.692 -1984.101)" style="fill-rule:evenodd;fill:#fff"/>
            <path data-name="Path 1206" d="M1265.906 1642.712a18.371 18.371 0 0 0-1.318 2.4c-.463.879-1.117 1.876-.26 2.728 1.043-1.017 1.673-2.187 3.258-2.759 2.109-.76 2.792.44 4.051 1.558a18.326 18.326 0 0 0 3.494-1.741c2.535-1.424 2.948-1.1 2.893-2.394z" transform="translate(-1125.344 -1462.429)" style="fill-rule:evenodd;fill:#fff"/>
            <path data-name="Path 1207" d="m943.15 1748.02 5.565-.138a4.044 4.044 0 0 0 .819-1.262c.013-.3-.146-1.46-.151-1.965-.015-1.542.127-2.952.163-4.465l-3.2.064z" transform="translate(-839.75 -1549.409)" style="fill-rule:evenodd;fill:#fff"/>
            <path data-name="Path 1208" d="m2412.93 1664.481 3.191 1.755c.855-.122 4.136-1.97 5.393-2.433 2.1-.775 3.917-1.149 5.995-1.776l-.966-2.041c-1.561-.122-12.804 3.663-13.613 4.495z" transform="translate(-2148.394 -1477.996)" style="fill-rule:evenodd;fill:#fff"/>
            <path data-name="Path 1209" d="m2458.02 1696.727 3.309 1.776c.5-.045 2.926-1.24 3.664-1.516a43.507 43.507 0 0 1 4.391-1.119l-1.213-2.642c-1.202-.3-9.671 2.609-10.151 3.501z" transform="translate(-2188.54 -1507.574)" style="fill-rule:evenodd;fill:#fff"/>
            <path data-name="Path 1210" d="m1635.784 1403.66 3.174.015a7.024 7.024 0 0 0 1.86-5.21l-5.258-.056z" transform="translate(-1456.249 -1245.099)" style="fill-rule:evenodd;fill:#fff"/>
            <path data-name="Path 1211" d="M1067.025 1467.163c.787-.464.888-1.8 3.275-3a6.427 6.427 0 0 1 5.191-.613 10.561 10.561 0 0 1 2.025-2.206l-8.373-.023c-.413.855-.83 1.972-1.181 2.85-.328.823-1.217 2.176-.937 2.992z" transform="translate(-949.996 -1301.112)" style="fill-rule:evenodd;fill:#fff"/>
            <path data-name="Path 1212" d="M1215.547 1465.869c.409-.182 2.067-1.742 2.788-2.236 2.051-1.406 2.72-1.12 3.55-1.523l.049-.98-9.364.008c1.897 1.742 1.745.803 2.977 4.731z" transform="translate(-1079.632 -1300.943)" style="fill-rule:evenodd;fill:#fff"/>
            <path data-name="Path 1213" d="M2382.64 1639.857c.545-.1 2.683-1.145 3.405-1.445a89.313 89.313 0 0 1 3.566-1.4 47.352 47.352 0 0 1 7.5-2.256l-.76-1.439c-.7.017-6.6 2.449-7.687 2.891a71.605 71.605 0 0 1-7.838 2.654 5.26 5.26 0 0 0 1.814.995z" transform="translate(-2119.813 -1454.255)" style="fill-rule:evenodd;fill:#fff"/>
            <path data-name="Path 1214" d="M2427.283 1466.119c-.236-.685-3.924-7.435-4.324-7.868l-3.589-.031 5.4 6.473c1.169 1.376.58 1.491 2.513 1.426z" transform="translate(-2154.128 -1298.352)" style="fill-rule:evenodd;fill:#fff"/>
            <path data-name="Path 1215" d="M1006.91 1788.7c.194.417-.112.33 1.379.069a62.934 62.934 0 0 1 10.327-1.332l3.13-2.165-8 1.093c-1.603.235-6.124.841-6.836 2.335z" transform="translate(-896.519 -1589.547)" style="fill-rule:evenodd;fill:#fff"/>
            <path data-name="Path 1216" d="m2502.74 1733.478 3.054 1.9c1.67-.562 2.889-1.51 4.879-1.959l-.794-2.1c-1.331.058-6.538 1.121-7.139 2.158z" transform="translate(-2228.357 -1541.511)" style="fill-rule:evenodd;fill:#fff"/>
            <path data-name="Path 1217" d="m996.557 1821.645-.527 1.386c.22.126.327.1.786-.034a29.344 29.344 0 0 1 7.213-.84 2.567 2.567 0 0 0 1.208-.97c.7-1 .673-.221 1.351-.887-3.094.02-6.861 1.061-10.031 1.345z" transform="translate(-886.832 -1620.736)" style="fill-rule:evenodd;fill:#fff"/>
            <path data-name="Path 1218" d="M978.28 1657.99a7.645 7.645 0 0 0 2.632-.152l1.009-8.338c-.458.146-3.501 7.9-3.641 8.49z" transform="translate(-871.028 -1468.661)" style="fill-rule:evenodd;fill:#fff"/>
            <path data-name="Path 1219" d="m2542.54 1765.095 2.442 2.046a16.239 16.239 0 0 0 2.827-1l-1.068-2.528a10.3 10.3 0 0 0-4.201 1.482z" transform="translate(-2263.794 -1570.261)" style="fill-rule:evenodd;fill:#fff"/>
            <path data-name="Path 1220" d="m984.439 1853.016-.569 1.432 4.77-.363 2.369-1.81c-.257-.358.029-.127-.433-.238-1.41-.337-4.824.732-6.137.979z" transform="translate(-876.005 -1648.935)" style="fill-rule:evenodd;fill:#fff"/>
            <path data-name="Path 1221" d="m2534.23 1629.519 1.445.032-4.038-7.519-1.318-.022c.552 1.165 1.4 2.482 2.065 3.682.616 1.108 1.271 2.988 1.846 3.827z" transform="translate(-2252.914 -1444.185)" style="fill-rule:evenodd;fill:#fff"/>
            <path data-name="Path 1222" d="m1281.942 2349.887.109-1.772c-1.143-.709-3.365-3.4-4.914-2.719-.381.957.025.975.764 1.327 1.599.762 3.336 2.902 4.041 3.164z" transform="translate(-1136.99 -2088.167)" style="fill-rule:evenodd;fill:#fff"/>
            <path data-name="Path 1223" d="M2493.5 1550.82h1.047l-3.791-7.044-1.1-.036c.314.81 1.514 2.436 2.046 3.5.62 1.233 1.279 2.283 1.798 3.58z" transform="translate(-2216.711 -1374.496)" style="fill-rule:evenodd;fill:#fff"/>
            <path data-name="Path 1224" d="M1521.392 1551.094a30.792 30.792 0 0 0 3.96-2.712l-4-.032z" transform="translate(-1354.56 -1378.601)" style="fill-rule:evenodd;fill:#fff"/>
            <path data-name="Path 1225" d="m972.543 1886.077-.553 1.38c.251.207.09.152.523.128.067 0 .593-.136.687-.157a5.949 5.949 0 0 1 1.454-.13l1.6-1.428z" transform="translate(-865.428 -1679.118)" style="fill-rule:evenodd;fill:#fff"/>
            <path data-name="Path 1226" d="m2576.12 1799.784 1.2 1.339a3.729 3.729 0 0 0 1.656-.527l-.717-1.665a4.682 4.682 0 0 0-2.139.853z" transform="translate(-2293.693 -1601.709)" style="fill-rule:evenodd;fill:#fff"/>
            <path data-name="Path 1227" d="m2597.6 1827.014 2.759 4.021a26.9 26.9 0 0 0-1.676-4.4z" transform="translate(-2312.818 -1626.381)" style="fill-rule:evenodd;fill:#fff"/>
            <path data-name="Path 1228" d="M1638.527 1462.077a9.843 9.843 0 0 0 1.744-1.937l-1.8-.03z" transform="translate(-1458.84 -1300.035)" style="fill-rule:evenodd;fill:#fff"/>
            <path data-name="Path 1229" d="m956.906 1914.424-.976 2.421 2.68-2.755z" transform="translate(-851.129 -1704.244)" style="fill-rule:evenodd;fill:#fff"/>
        </g>
        <path data-name="Path 1230" d="M995.139 2135.325c.658-.47.963-.412 1.5-.777 3.005-2.026 6.047-4.429 9.333-6.25 1.95-1.082 3.917-1.871 5.923-3.041.934-.546 1.881-1.059 2.822-1.591.493-.28 3.125-1.961 2.764-.149-.19.95-9.937 5.522-11.377 6.431l-8.081 5.3c-.828.594-1.905 1.639-2.905 1.7-.012 5.134.3 11.971.1 16.814-.041.959-.306 1.641.466 2.234 3.086 2.377 5.043 1.9 3.332 3.993a23.3 23.3 0 0 1-3.277 2.212c-2.325 1.469-4.793 2.694-7.248 3.927-12.8 6.433-22.9 6.989-36.919 7.738-12.772.683-29.812.207-42.407-1.982-11.571-2.011-10.974-2.025-10.165-11.373.591-6.832 1.434-13.528 1.86-20.407-.7-.262-2.438-2.4-4.041-3.164-.739-.352-1.146-.369-.764-1.327 1.549-.683 3.77 2.01 4.914 2.719.421-4.169.538-9.2.543-13.411-4.435.71-8.78 1.8-13.235 2.51-12.973 2.083-24.814 1.155-35.567 11.869a12.309 12.309 0 0 0-3.43 11.632c.729 3.621 3.851 6.908 6.241 9.652a141.625 141.625 0 0 0 34.426 28.743c6.033 3.635 14.445 9.125 21.3 10.284 6.346 1.073 15.312.77 21.865-.171 2.379-.341 4.7-.79 7.109-.941a73.257 73.257 0 0 1 14.523 1.061c4.468.717 8.8 2.09 13.263 2.592 19.014 2.137 34.517-.717 50.6-11.144 15.365-9.958 39.125-31.235 45.388-49.35 3.449-9.978-.884-15.436-9.666-19.488-7.253-3.346-16.909-5.35-24.773-6.815-8.877-1.655-17.652-3.2-26.486-5.124l.28-.015c-.308-.159-7.367-.333-8.707-.544.027 4.223.14 8.512.411 12.719.275 4.27-.266 8.825.072 12.937z" transform="translate(-755.914 -1878.381)" style="fill:#7321f0;fill-rule:evenodd"/>
        <path data-name="Path 1231" d="M994.038 672.246a3.812 3.812 0 0 1 .662-.319 2.969 2.969 0 0 0 .624-.311c.957-.646 1.911-1.324 2.875-2.01a69.486 69.486 0 0 1 6.469-4.248 53.293 53.293 0 0 1 2.673-1.357c1.072-.52 2.153-1.044 3.248-1.683.579-.338 1.19-.679 1.8-1.018l1.023-.573.149-.085c.515-.3 1.744-1.026 2.4-.9.366.072.569.356.442 1-.145.726-4.832 3.111-8.219 4.835-1.523.775-2.782 1.415-3.223 1.694l-8.077 5.294c-.184.133-.372.279-.566.431a5.483 5.483 0 0 1-2.276 1.283c0 1.912.039 4.055.082 6.24.072 3.658.146 7.434.019 10.443-.008.19-.025.371-.041.543-.06.641-.106 1.139.447 1.566a16.6 16.6 0 0 0 2.6 1.615 6.671 6.671 0 0 1 1.047.62c.569.464.554.94-.292 1.974a16.493 16.493 0 0 1-2.754 1.9c-.227.138-.422.258-.559.344-2.228 1.407-4.585 2.59-6.935 3.77l-.327.164a63.488 63.488 0 0 1-18.047 6.014 157.868 157.868 0 0 1-18.931 1.739c-6.744.361-14.677.4-22.517.032a164.766 164.766 0 0 1-19.924-2.015c-11.153-1.938-11.143-2.045-10.406-10.25l.113-1.288c.221-2.556.483-5.145.745-7.732.422-4.167.844-8.329 1.109-12.566a8.038 8.038 0 0 1-1.308-1.081 12.108 12.108 0 0 0-2.64-2.04 6.604 6.604 0 0 0-.26-.118c-.657-.292-.968-.43-.58-1.4l.08-.084c1.215-.535 2.738.789 3.935 1.83.34.295.651.566.914.759.2-2.012.322-4.215.4-6.423.08-2.24.112-4.483.115-6.537-2.154.35-4.289.786-6.427 1.224-2.2.449-4.4.9-6.632 1.259-2.559.41-5.064.7-7.524.991-10.04 1.174-19.358 2.264-27.96 10.835a12.271 12.271 0 0 0-3.193 5.246 12.917 12.917 0 0 0-.2 6.247c.657 3.267 3.305 6.281 5.572 8.857l.635.725a140.04 140.04 0 0 0 16.036 15.715 147.217 147.217 0 0 0 18.354 13c.589.355 1.285.78 2 1.217 5.793 3.532 13.148 8.017 19.247 9.048a60.386 60.386 0 0 0 10.164.674 89.892 89.892 0 0 0 11.654-.846c.679-.1 1.306-.2 1.932-.294 1.721-.271 3.434-.539 5.189-.648a49.334 49.334 0 0 1 6.486.1c2.808.205 5.667.573 8.071.958 1.938.311 3.848.744 5.752 1.177a68.779 68.779 0 0 0 7.5 1.413 81.69 81.69 0 0 0 26.351-.858 70.776 70.776 0 0 0 24.153-10.262 162.529 162.529 0 0 0 29.152-24.83c7.3-7.943 13.429-16.5 16.174-24.443 1.709-4.942 1.493-8.761-.236-11.841s-4.987-5.444-9.351-7.457a72.414 72.414 0 0 0-12.13-4.1c-4.3-1.1-8.675-1.967-12.606-2.7q-2.578-.48-5.148-.953c-7.136-1.317-14.226-2.624-21.343-4.173l.005-.066c-.566-.057-2.045-.125-3.616-.2-1.84-.083-3.8-.173-4.631-.272.014 2.051.049 4.12.113 6.187.066 2.119.161 4.242.3 6.348.133 2.063.076 4.193.019 6.307-.058 2.167-.116 4.32.034 6.366zm.774-.034a3.373 3.373 0 0 0-.818.431l-.219.157-.022-.269a62.132 62.132 0 0 1-.055-6.658c.057-2.1.114-4.226-.019-6.282-.135-2.1-.23-4.225-.3-6.358s-.1-4.255-.114-6.37v-.179l.178.027c.665.105 2.792.2 4.774.293a37.733 37.733 0 0 1 3.98.266l-.014.067c7.026 1.523 14.006 2.81 21.03 4.1q2.569.474 5.148.954c3.934.732 8.316 1.6 12.625 2.7a72.685 72.685 0 0 1 12.183 4.121c4.419 2.039 7.723 4.437 9.49 7.587s2 7.056.257 12.09c-2.76 7.987-8.908 16.581-16.238 24.55a162.823 162.823 0 0 1-29.211 24.879 71.1 71.1 0 0 1-24.256 10.3 82 82 0 0 1-26.448.864 69.353 69.353 0 0 1-7.537-1.42c-1.9-.432-3.807-.865-5.734-1.174a96.528 96.528 0 0 0-8.044-.954 49.338 49.338 0 0 0-6.446-.105c-1.749.109-3.45.376-5.161.645-.658.1-1.319.207-1.935.295a90.03 90.03 0 0 1-11.695.85 60.648 60.648 0 0 1-10.211-.664c-6.157-1.04-13.541-5.543-19.356-9.089-.664-.4-1.308-.8-2-1.216a147.5 147.5 0 0 1-18.391-13.025 140.286 140.286 0 0 1-16.071-15.748l-.635-.725c-2.29-2.6-4.967-5.649-5.641-9a13.22 13.22 0 0 1 .2-6.394 12.575 12.575 0 0 1 3.269-5.376c8.677-8.646 18.046-9.742 28.142-10.922 2.463-.288 4.971-.582 7.51-.99 2.224-.356 4.424-.806 6.62-1.255s4.4-.9 6.615-1.255l.178-.029v.18c0 2.11-.033 4.424-.115 6.728s-.218 4.61-.429 6.7l-.025.243-.207-.128a10.64 10.64 0 0 1-1.161-.929c-1.112-.967-2.522-2.193-3.554-1.8-.242.645-.016.745.444.949l.266.122a12.325 12.325 0 0 1 2.718 2.093 6.357 6.357 0 0 0 1.312 1.066l.106.039-.007.113c-.265 4.268-.691 8.472-1.117 12.683-.259 2.55-.517 5.1-.744 7.728l-.118 1.282c-.712 7.929-.72 8.032 10.154 9.922a164.615 164.615 0 0 0 19.885 2.012c7.831.365 15.753.328 22.488-.032a157.633 157.633 0 0 0 18.9-1.736 63.216 63.216 0 0 0 17.962-5.986l.328-.164c2.343-1.176 4.69-2.355 6.908-3.756l.563-.346a16.785 16.785 0 0 0 2.675-1.833c.7-.851.736-1.219.337-1.545a6.45 6.45 0 0 0-1-.587 16.991 16.991 0 0 1-2.648-1.643c-.686-.53-.633-1.1-.564-1.835.015-.166.032-.339.039-.526.126-3 .053-6.773-.019-10.426-.044-2.238-.087-4.431-.082-6.383V674l.143-.01a4.84 4.84 0 0 0 2.25-1.232c.2-.161.4-.316.577-.441 2.467-1.591 5.618-3.971 8.089-5.3.459-.291 1.721-.933 3.251-1.71 3.332-1.7 7.941-4.041 8.056-4.621.084-.42-.013-.6-.2-.636-.542-.107-1.7.572-2.184.858l-.154.089-1.025.574c-.591.329-1.183.659-1.794 1.015-1.1.641-2.189 1.17-3.27 1.694-.891.432-1.778.862-2.657 1.348a69.359 69.359 0 0 0-6.44 4.231c-.971.691-1.932 1.374-2.881 2.014a3.2 3.2 0 0 1-.683.343zm-64.087-110.477c.065.323.113.626.157.912a4.547 4.547 0 0 0 1.092 2.7 4.345 4.345 0 0 0 1.824 1.3 5.486 5.486 0 0 1 1.12.593c.262.032.5.067.733.1a8.915 8.915 0 0 0 2.378.11 5.588 5.588 0 0 0 1.752-.547 3.633 3.633 0 0 1 .786-.292l.794-1.366.139.122c.389.34.741.669 1.074.981 1.6 1.5 2.8 2.61 5.71 2.737a6.852 6.852 0 0 0 1.086-.045c.819-.086 1.395-.145 3.447.9a9.015 9.015 0 0 0 2.291.981 8.77 8.77 0 0 1 1.052.318c.225.08.231.079.232.079l.145-.016.038.139s0-.007.082.067l.286-.021a5.147 5.147 0 0 1 1.27-.148 8.056 8.056 0 0 0 1.105-.1 7.706 7.706 0 0 0 .971-.269 10.124 10.124 0 0 0 .938-.38 14.564 14.564 0 0 0 1.666-1.006 10.35 10.35 0 0 1 1.507-.9 3.534 3.534 0 0 1 .525-.7 6.358 6.358 0 0 1 .813-.74 8.223 8.223 0 0 1 .494-1.1 7.145 7.145 0 0 0 .543-1.263 5.92 5.92 0 0 0 .005-2.255 1.622 1.622 0 0 1-.031-.56l.031-.08.823-.157a19.719 19.719 0 0 1 2.006-1.072c.832-.414 1.689-.841 2.056-1.077a8.5 8.5 0 0 0 3.378-3.776 5 5 0 0 0-.178-4.165 5.136 5.136 0 0 0-1.774-2.12 8.541 8.541 0 0 1-1.175-1.043l-.088-.094.079-.1a5.8 5.8 0 0 1 1.188-.948 12.817 12.817 0 0 0 3.645-3.414c1.661-2.519 1.238-3.8.487-6.068-.091-.276-.187-.567-.283-.868a2.418 2.418 0 0 1 .016-1.943 4.535 4.535 0 0 1 1.34-1.354c.444-.343.876-.669 1.307-.981s.883-.626 1.348-.932l1.378-.9c6.564-4.288 14.646-9.567 18.349-16.237a10.732 10.732 0 0 0 .761-1.734 7.661 7.661 0 0 0 .374-1.638 2.954 2.954 0 0 0-.946-2.888l-.33-.39.045-.089c.335-.676 4.878-5.131 7.657-7.855.888-.872 1.6-1.566 1.925-1.9a52.853 52.853 0 0 0 4.728-5.536 38.463 38.463 0 0 0 3.469-5.513 18.093 18.093 0 0 0 2.124-8.446 7.259 7.259 0 0 0-2.741-5.648c-5-3.89-10.034-1.105-12.626.33a7.173 7.173 0 0 1-1.511.723l-.078.015-.058-.055c-.384-.364-.766-.738-1.149-1.112a23.813 23.813 0 0 0-5.365-4.321 16.727 16.727 0 0 0-8.711-1.6 33 33 0 0 0-10.887 2.711 24.739 24.739 0 0 0-3.489 1.775 3.563 3.563 0 0 1-1.057.51 16.61 16.61 0 0 1-3.307.143h-1.789a37.836 37.836 0 0 0-14.421 2.891 28.15 28.15 0 0 0-10.757 7.761c-.84 1.008-1.636 2.06-2.43 3.112l-.162.216a10.6 10.6 0 0 0-1.636 2.937c-.192.509-.3.789-.646.907a6.024 6.024 0 0 1-2.413-.295c-.866-.181-2.037-.425-3.658-.715a37.75 37.75 0 0 0-3.3-.469 20.125 20.125 0 0 0-3.321-.054 22.861 22.861 0 0 0-9.542 3.028 34.339 34.339 0 0 0-8.856 7.365c-.6.685-1.146 1.328-1.664 1.994a21.624 21.624 0 0 0-1.476 2.14c-1.684 2.8-1.268 3.741-.942 4.484a2.327 2.327 0 0 1 .237.764l.005.072-.054.052a23.6 23.6 0 0 1-2 1.642 14.662 14.662 0 0 0-3.209 3.043 12.384 12.384 0 0 0-2.694 7.605 8.012 8.012 0 0 0 3.152 6.108l.437.356a27.417 27.417 0 0 0 2.364 1.785c.326.213.775.462 1.238.718a13.043 13.043 0 0 1 1.905 1.183l.057.05-.005.076a12.192 12.192 0 0 1-.253 1.856c-.176.862-.264 1.293.34 4.324a17.249 17.249 0 0 0 .751 2.685 11.3 11.3 0 0 0 1.069 2.165 16 16 0 0 0 6.135 5.291 8.761 8.761 0 0 1 1.282.793l.052.044v.067c.011.334.018.643.024.926.047 2.186.06 2.777 1.939 4.784a12.976 12.976 0 0 0 1.954 1.619 20.157 20.157 0 0 0 2.546 1.527c.932.455 1.826.842 2.735 1.188s1.836.654 2.829.952a29.14 29.14 0 0 0 2.3.567c1.792.383 2.929.627 3.085 1.97zm-.145.959a19.272 19.272 0 0 0-.157-.909v-.013c-.129-1.127-1.183-1.353-2.845-1.708-.683-.147-1.467-.315-2.328-.572-1-.3-1.933-.611-2.849-.96s-1.821-.739-2.76-1.2a20.627 20.627 0 0 1-2.586-1.553 13.279 13.279 0 0 1-2-1.661c-1.96-2.094-1.973-2.709-2.023-4.986a67.278 67.278 0 0 0-.022-.854 9.879 9.879 0 0 0-1.181-.715 16.279 16.279 0 0 1-6.244-5.393 11.643 11.643 0 0 1-1.1-2.222 17.723 17.723 0 0 1-.765-2.733c-.616-3.091-.523-3.542-.339-4.445a11.821 11.821 0 0 0 .242-1.74 14.264 14.264 0 0 0-1.795-1.1c-.472-.262-.93-.515-1.256-.729a27.473 27.473 0 0 1-2.39-1.8l-.436-.354a8.309 8.309 0 0 1-3.265-6.337 12.687 12.687 0 0 1 2.753-7.8 14.948 14.948 0 0 1 3.269-3.1 23.936 23.936 0 0 0 1.917-1.57 2.34 2.34 0 0 0-.2-.6c-.354-.807-.8-1.832.96-4.766a22.029 22.029 0 0 1 1.5-2.17 48.198 48.198 0 0 1 1.674-2.006 34.656 34.656 0 0 1 8.937-7.431 23.179 23.179 0 0 1 9.671-3.068 20.367 20.367 0 0 1 3.37.056c1.126.1 2.239.276 3.331.47 1.6.286 2.787.535 3.667.718a6.334 6.334 0 0 0 2.253.3c.209-.071.3-.3.457-.725a10.9 10.9 0 0 1 1.677-3.014l.162-.216c.795-1.054 1.591-2.107 2.439-3.125a28.453 28.453 0 0 1 10.873-7.846 38.172 38.172 0 0 1 14.542-2.9h1.79a16.719 16.719 0 0 0 3.233-.134 3.387 3.387 0 0 0 .971-.475 24.969 24.969 0 0 1 3.527-1.794 33.249 33.249 0 0 1 10.991-2.736 17.018 17.018 0 0 1 8.869 1.631 24.012 24.012 0 0 1 5.437 4.372c.361.353.721.7 1.085 1.051a8.766 8.766 0 0 0 1.351-.67c2.653-1.468 7.8-4.318 12.961-.306a7.551 7.551 0 0 1 2.858 5.877 18.379 18.379 0 0 1-2.155 8.6 38.733 38.733 0 0 1-3.5 5.559 53.517 53.517 0 0 1-4.756 5.569 189.27 189.27 0 0 1-1.93 1.9c-2.665 2.614-6.962 6.827-7.546 7.69l.194.229a3.184 3.184 0 0 1 1.016 3.115 7.879 7.879 0 0 1-.388 1.7 11 11 0 0 1-.783 1.786c-3.742 6.737-11.858 12.039-18.45 16.344l-1.377.9c-.462.3-.9.61-1.336.924s-.867.641-1.3.975a4.317 4.317 0 0 0-1.255 1.253 2.143 2.143 0 0 0 0 1.71l.282.864c.781 2.359 1.221 3.688-.523 6.332a13.047 13.047 0 0 1-3.726 3.5 7.873 7.873 0 0 0-1.035.786 8.692 8.692 0 0 0 1.044.908 5.393 5.393 0 0 1 1.863 2.23 5.3 5.3 0 0 1 .186 4.412 8.794 8.794 0 0 1-3.5 3.918c-.385.248-1.247.678-2.084 1.094a18.015 18.015 0 0 0-1.966 1.048l-.08.043-.662.126.044.338a6.128 6.128 0 0 1-.013 2.378 7.317 7.317 0 0 1-.565 1.32 7.822 7.822 0 0 0-.492 1.1l-.056.077a6.018 6.018 0 0 0-.808.728 3.117 3.117 0 0 0-.5.686l-.087.077a9.294 9.294 0 0 0-1.5.886 14.718 14.718 0 0 1-1.707 1.028 10.044 10.044 0 0 1-.968.392 6.12 6.12 0 0 1-2.161.382 4.886 4.886 0 0 0-1.2.136l-.046.011-.437.032-.048-.044a1.486 1.486 0 0 1-.162-.169 2.047 2.047 0 0 1-.282-.083 8.527 8.527 0 0 0-1.02-.308 9.28 9.28 0 0 1-2.359-1c-1.973-1-2.512-.947-3.278-.868a7.069 7.069 0 0 1-1.13.047c-3.027-.133-4.254-1.278-5.9-2.82-.292-.273-.6-.558-.927-.852l-.685 1.177-.079.007a2.95 2.95 0 0 0-.767.277 5.8 5.8 0 0 1-1.847.572 9.1 9.1 0 0 1-2.451-.111c-.238-.034-.489-.07-.766-.1l-.07-.027a5.236 5.236 0 0 0-1.094-.583 4.584 4.584 0 0 1-1.933-1.383 4.793 4.793 0 0 1-1.165-2.859z" transform="translate(-754.681 -415.576)" style="fill:#6b27e8"/>
        <g data-name="Group 277">
            <path data-name="Path 1232" d="M736.167 27.328c.334.54.665 1.046-.077 1.429-.787.406-9.335 1.609-10.634 1.819l-84.637 13.843c-2.323.379-4.73.865-7.034 1.206-1.408.208-5.591.19-6.184 1.606-.5 1.2 1.518 4.419 2.019 5.766.728 1.957 1.489 3.828 2.266 5.764L660.118 129c.728 1.819 1.448 3.991 2.294 5.705.28.567 2.4 4.987 1.258 5.258-1.105.26-2.482-4.226-2.738-5-.584-1.776-1.585-3.916-2.307-5.706L630.39 59.015c-.784-1.95-1.653-3.939-2.362-5.91-.571-1.59-2.232-4.578-2.4-5.887-.326-2.469 3.235-2.484 4.9-2.648 2.313-.228 4.682-.741 6.992-1.116 32.861-5.33 65.81-10.926 98.654-16.126zm-77.545 116.926a1.888 1.888 0 0 1 1.461 1.63c1.529-.266 30.359.1 32.813.105 5.424.014 10.848.076 16.274.09 5.386.014 11.152-.109 16.5.1-.2-1.723-2.247-1.5-5.28-2.41a35.358 35.358 0 0 1-5.587-2.149 18.52 18.52 0 0 1-4.544-3.18c-2.161-2.309-1.905-2.781-2-5.809-1-.854-4.874-2.132-7.447-6.118a14.265 14.265 0 0 1-1.841-4.9c-.9-4.491-.283-3.343-.089-6.221-.625-.548-2.289-1.341-3.126-1.888a33.318 33.318 0 0 1-2.813-2.15c-4.705-3.805-3.695-9.628-.486-13.924 1.673-2.24 3.4-2.987 5.224-4.705-.084-1.059-1.535-1.581.727-5.34a28.6 28.6 0 0 1 3.156-4.155c4.668-5.365 11.215-9.909 18.5-10.445a26.891 26.891 0 0 1 6.664.524c8.884 1.589 4.666 1.909 8.2-2.775.85-1.125 1.695-2.253 2.6-3.334 6.09-7.3 16.025-10.653 25.3-10.695 7.562-.035 3.445.235 9.581-2.42 5.784-2.5 13.888-4.164 19.728-1.108 2.523 1.319 4.485 3.5 6.549 5.456 1.537-.319 7.91-5.965 14.262-1.023 4.435 3.451 2.8 10.005.66 14.283a47.937 47.937 0 0 1-8.225 11.089c-1.361 1.379-9.126 8.852-9.555 9.715 1.044 1.249 1.423 1.494 1.245 3.314a9.666 9.666 0 0 1-1.152 3.432c-3.987 7.181-12.995 12.739-19.777 17.193a42.544 42.544 0 0 0-2.647 1.905c-1.2.931-1.82 1.5-1.3 3.13.917 2.89 1.682 4.179-.223 7.067-1.66 2.517-4.268 3.623-4.84 4.37 1.167 1.271 2.055 1.294 2.975 3.2 1.6 3.316-.433 6.32-3.255 8.135-.8.514-3.787 1.871-4.076 2.163 11.268-.139 22.69.149 33.978.181 5.654.016 11.309.076 16.963.1l12.827.078c.736 0 1.471.005 2.207.005.838 0 1.248-.173 1.819.309.088-.475.691-.687 1.174-.824 1.074-5.115 2.819-10.253 4.311-15.282l31.79-106.957c1.471-4.956 3.231-10.2 4.463-15.181.449-1.818 2.432-6.271 2.245-7.635-.316-2.315-5.5-.607-6.909-.311-2.694.565-5.723.9-8.48 1.341L662.709 33.763c-11.37 1.826-22.929 3.481-34.249 5.466-1.372.241-2.686.577-4.076.756-5.575.719-8.628-.253-5.9 5.367 1.175 2.423 1.951 4.687 2.98 7.138.98 2.337 1.917 4.716 2.865 7.069q5.695 14.148 11.441 28.279c7.6 18.792 15.088 37.7 22.853 56.416z" transform="translate(-549.775 -.004)" style="fill:#440ca0;fill-rule:evenodd"/>
            <path data-name="Path 1233" d="M1405.619 1664.95c-.022-.644.013-2.141 1.116-1.3.468.357.412 1.51.4 2.051.738-.775 3.185-10.871 3.617-12.665a77.905 77.905 0 0 0 2.339-13.808 43.564 43.564 0 0 0-1.54-14.724 47.873 47.873 0 0 0-2.444-5.694c-1.034-2.258-2.982-3.947-3.2-4.5l-3.412-1.352c.237.354 2.745 2.768 3.9 4.3a26 26 0 0 1 2.8 5.2 34.938 34.938 0 0 1 2.483 13.605c.111 9.483-2.97 18.03-4.985 27.133-1.487-.505-3.8.893-5.281 1.449-21.312 8.011-47.314 8.351-68.956 1.87a66.367 66.367 0 0 1-17.432-7.951c-.842-.556-1.413-1.3-2.4-1.037-.807 1 .354 1.422 1.088 1.933s1.424.956 2.17 1.419c11.384 7.056 26.674 10.343 39.754 11.318 15.389 1.148 32.88-.736 47.406-6.614.98-.401 1.53-.924 2.577-.633z" transform="translate(-1168.465 -1436.127)" style="fill:#440ca0;fill-rule:evenodd"/>
            <path data-name="Path 1234" d="M1277.773 1842.17c-.321 1.2-.036 1.447.919 2.174.773.588 1.458 1.189 2.264 1.748a40.719 40.719 0 0 0 5.03 2.968c11.188 5.636 26.825 8.07 39.094 8.641a137.328 137.328 0 0 0 29.7-1.681 93.457 93.457 0 0 0 12.768-3.084c1.9-.611 10.146-3.745 11.118-5.042.753-1.006-.3-1.381-1.261-.967-.769.333-1.666 1.061-2.616 1.513a59.888 59.888 0 0 1-5.63 2.383c-12.721 4.577-28.706 5.944-42.039 5.478a124.894 124.894 0 0 1-27.893-3.938 69.591 69.591 0 0 1-11.675-4.185 39.6 39.6 0 0 1-5.136-2.864 18.384 18.384 0 0 1-2.292-1.7c-.949-.953-.961-1.154-2.351-1.444z" transform="translate(-1137.574 -1640.208)" style="fill:#440ca0;fill-rule:evenodd"/>
            <path data-name="Path 1235" d="M1289.967 1727.97c-.243 1.515.532 1.487 1.756 2.022a79.678 79.678 0 0 0 9.318 3.744c19.766 6.5 48.376 8.965 69.219 4.6a54.8 54.8 0 0 0 9.783-2.891c1.563-.655 7.457-3.547 7.72-5.2.151-.953-.824-.906-1.425-.484-.64.451-.942 1.063-1.707 1.571a39.286 39.286 0 0 1-13.813 5.372c-16.977 3.731-38.794 2.606-55.542-.776a118.892 118.892 0 0 1-13.269-3.429 85.164 85.164 0 0 1-6.156-2.256c-1.706-.71-4.24-2.253-5.884-2.273z" transform="translate(-1148.505 -1538.528)" style="fill:#440ca0;fill-rule:evenodd"/>
            <path data-name="Path 1236" d="M1319.095 2499.867a47.457 47.457 0 0 0-.618 5.45c.5-.541.365-2.789.439-3.621 3.482 1.074 6.725 2.484 10.353 3.488a133.023 133.023 0 0 0 11.21 2.587 158.041 158.041 0 0 0 25.1 2.56 136.772 136.772 0 0 0 25.965-1.727c5.722-.98 16.153-3.482 20.8-6.908-1.284-1.5-.247-2.961-.515-4.826-.291.538-.173 2.788-.2 3.589-18 10.437-50.8 9.641-71.4 5.75-3.091-.585-19.754-4.474-21.134-6.342z" transform="translate(-1173.922 -2223.132)" style="fill:#440ca0;fill-rule:evenodd"/>
            <path data-name="Path 1237" d="M1340.855 2203.136c.276-.951.092-5.6.1-6.959 1.583.547 3.194 1.382 4.8 1.98 1.661.616 3.293 1.217 4.972 1.786 17.88 6.067 41.173 8.358 59.783 5.692a74.312 74.312 0 0 0 16.267-4.02c1.606-.6 3.278-1.545 4.789-2.068l-.089-1.688c-13.565 7.029-31.871 8.108-46.864 7.073a136.436 136.436 0 0 1-34.057-6.612c-3.4-1.111-6.45-2.609-9.723-3.81z" transform="translate(-1193.84 -1953.92)" style="fill:#440ca0;fill-rule:evenodd"/>
            <path data-name="Path 1238" d="M1336.81 2353.56c1.529.434 3.277 1.352 4.834 1.92 1.663.608 3.292 1.211 4.966 1.793 22.128 7.7 53.98 10.4 76.467 2.259 1.617-.585 3.406-1.561 4.951-2.02l-.033-1.762c-12.659 6.9-33.048 7.967-47.142 6.865a138.566 138.566 0 0 1-39.057-8.668c-1.542-.6-3.268-1.465-4.8-1.962l-.017-.425-.172 2z" transform="translate(-1190.252 -2093.753)" style="fill:#440ca0;fill-rule:evenodd"/>
            <path data-name="Path 1239" d="M1406.383 1638.51c-.427.288-1.021.572-1.443.924 9.32 7.94 29.38 10.415 41.227 10.388 10.683-.023 27.543-1.812 36.809-8.383a21.236 21.236 0 0 0 3.5-3.084c.464-.786.032-1.691-.839-1.26-.533.264-1.044 1.187-1.609 1.664-3.811 3.213-8.283 5.011-13.043 6.408a88.507 88.507 0 0 1-22.6 3.151 103.555 103.555 0 0 1-23.6-2.171c-4.574-.99-15.375-4.131-18.402-7.637z" transform="translate(-1250.912 -1457.518)" style="fill:#440ca0;fill-rule:evenodd"/>
            <path data-name="Path 1240" d="m1503.658 1574.606-.968.711c.332 1.164 1.913 1.4 2.961 1.781 1.221.44 2.387.825 3.632 1.2 12.833 3.814 29.785 4.963 42.683 1.457 10.128-2.753 10.915-6.42 12.391-7.082-.458-.262-1.114-.536-1.649-.8-1.525 3.3-8.415 5.754-11.739 6.619a66.766 66.766 0 0 1-16.389 1.863 91.093 91.093 0 0 1-16.826-1.548c-2.489-.469-12.499-2.819-14.096-4.201z" transform="translate(-1337.946 -1399.542)" style="fill:#440ca0;fill-rule:evenodd"/>
            <path data-name="Path 1241" d="M2261.49 1710.968a17.939 17.939 0 0 0 3.344.134c.222-.49 3.077-3.888 3.656-4.6a30.424 30.424 0 0 0 7.186-17.609 38.25 38.25 0 0 0-6.518-22.423 20.672 20.672 0 0 1-1.7-2.432l-3.222-1.042c.344.5 1.614 1.436 2.209 2.19a37.967 37.967 0 0 1 7.795 22.46 27.727 27.727 0 0 1-3.808 13.484 44.909 44.909 0 0 1-3.546 5 60.948 60.948 0 0 0-3.834 4.863z" transform="translate(-2013.556 -1480.681)" style="fill:#440ca0;fill-rule:evenodd"/>
            <path data-name="Path 1242" d="m2194.66 1694.556 2.078.135c.157-.64 2.286-4.06 2.793-5.086 2.519-5.082 5.312-12.439 5.691-17.983.428-6.245-.942-17.575-3.887-23.581a18.3 18.3 0 0 1-1.255-2.438l-2.409-.722c.648 1.652 2.236.91 4.706 11.486a53.04 53.04 0 0 1 1.375 14.883c-.432 6.474-4.305 16.405-8.118 22.182-.399.6-.671.682-.974 1.124z" transform="translate(-1954.053 -1464.548)" style="fill:#440ca0;fill-rule:evenodd"/>
            <path data-name="Path 1243" d="M1135.566 1794.492c.368.657-.164 2.469-.209 3.318-.65 12.124 4.69 28.943 13.547 37.6l4.19 3.631 1.811-.543a28.937 28.937 0 0 1-4.332-3.516c-7.566-7.785-11.077-16.347-12.993-27-1.712-9.531-.053-12.4-.214-14.751-.541.425-1.322.826-1.8 1.261z" transform="translate(-1010.837 -1596.634)" style="fill:#440ca0;fill-rule:evenodd"/>
            <path data-name="Path 1244" d="M1225.275 1734.639c.2.438-.64 2.175-.8 2.786a26.543 26.543 0 0 0-.64 3.053c-1.453 11.081-.9 22.023 4.268 32.146 1.1 2.15 4.176 7.857 6.419 8.626a10.52 10.52 0 0 1-.155-2.464l-.212.538c-1.5-1.1-4.655-7.155-5.521-9.024-3.686-7.953-4.411-16.223-3.8-24.9.691-9.852 2.45-10.081 2.8-11.97z" transform="translate(-1089.045 -1543.39)" style="fill:#440ca0;fill-rule:evenodd"/>
            <path data-name="Path 1245" d="M1573.107 1539.454a11.074 11.074 0 0 0-1.467 1c11.827 5.947 29.908 8.084 42.278 1.827a25.223 25.223 0 0 0 2.359-1.364c.667-.436 1.527-1.224 2.161-1.541l-1.585-.785c-1.335 1.738-7.009 3.881-9.192 4.462a51.507 51.507 0 0 1-24.5.017c-1.861-.428-8.878-2.483-10.054-3.616z" transform="translate(-1399.337 -1369.91)" style="fill:#440ca0;fill-rule:evenodd"/>
            <path data-name="Path 1246" d="M2291.99 1765.993a65.57 65.57 0 0 0 9.016-.024l-2.591.063c1.613-2.342 10.374-6.613 13.784-15.943a26.454 26.454 0 0 0 1.14-13.064c-.792-4.77-3.531-9.608-3.809-11.035l-2.756-1.341c4.991 7.832 7.333 17.2 3.548 26.18-2.882 6.833-7.942 9.358-11.88 13.226-2.942 2.887-2.542 1.799-6.452 1.938z" transform="translate(-2040.713 -1535.572)" style="fill:#440ca0;fill-rule:evenodd"/>
            <path data-name="Path 1247" d="M1069.366 1839.875c.193.505-.314 2.208-.4 2.867a25.53 25.53 0 0 0-.189 3.581 50.625 50.625 0 0 0 .459 6.876 40.678 40.678 0 0 0 3.166 11.583c2.644 5.845 5.643 11.061 10.706 15.087a18.1 18.1 0 0 1 2.006 1.56l2.2-.465c-2.171-.567-6.645-5.3-8.085-7.147a47.777 47.777 0 0 1-5.451-9.584 40.04 40.04 0 0 1-3.169-12.008 45.821 45.821 0 0 1-.331-7.282 55.835 55.835 0 0 1 1.014-6.522z" transform="translate(-951.6 -1636.87)" style="fill:#440ca0;fill-rule:evenodd"/>
            <path data-name="Path 1248" d="M1014.677 1882.182c.348.578-.182 2.025-.288 2.736-1.593 10.7.766 19.572 6.912 28.447 2.892 4.175 6.026 6.1 6.511 6.775l2.741-.3c-1.925.018-6.238-4.926-7.44-6.49a36.15 36.15 0 0 1-7.447-26.753c.231-2.079.748-4.027 1.028-6.044a11.837 11.837 0 0 0-2.017 1.629z" transform="translate(-902.748 -1674.38)" style="fill:#440ca0;fill-rule:evenodd"/>
            <path data-name="Path 1249" d="m2420.31 1807.9 3.731-.6c.328-.446 2.69-2.065 3.334-2.581 3.077-2.468 6.448-6.457 7.652-10.14 1.371-4.2.57-11.567-.5-15.888-.187-.759-.377-1.533-.614-2.275a11.33 11.33 0 0 1-.761-2.109 12.571 12.571 0 0 0-2.836-2.04c.1.875 1.51 2.125 2.183 4.46 1.385 4.8 2.611 13.089 1.035 17.609-2.745 7.864-12.657 12.828-13.224 13.564z" transform="translate(-2154.964 -1577.963)" style="fill:#440ca0;fill-rule:evenodd"/>
            <path data-name="Path 1250" d="m949.5 1945.494.285.258c-1.247 5.619.078 13.591 2.855 18.66a27.221 27.221 0 0 0 7.533 9.018 22.058 22.058 0 0 1 3.115 2.337c1.409-.107 5.863.12 6.735-.166-2.483.027-3.44.454-5.589-.918a42.049 42.049 0 0 1-3.836-2.784 26.553 26.553 0 0 1-9.466-17.012c-1-6.895.832-10.906.689-12.028a22.092 22.092 0 0 0-2.32 2.633z" transform="translate(-845.241 -1729.859)" style="fill:#440ca0;fill-rule:evenodd"/>
            <path data-name="Path 1251" d="M2527.98 1839.184a13.385 13.385 0 0 0 3.61-1.6c-.09-.314 1.123-1.481 1.418-1.875a22.719 22.719 0 0 0 1.371-2.214c2.435-4.261 3.744-9.317 2.551-14.173a26.587 26.587 0 0 1-.71-2.666c-.727-1.54-3.408-4.386-4.611-5.527a17.884 17.884 0 0 0 1.893 3.332 17.692 17.692 0 0 1 2.015 12.184 22.44 22.44 0 0 1-2.993 7.066c-1.806 3.095-4.032 4.657-4.544 5.473z" transform="translate(-2250.83 -1612.571)" style="fill:#440ca0;fill-rule:evenodd"/>
            <path data-name="Path 1252" d="M909.68 2016.049c.311 2.51-.107 2.577.6 6.5a27.416 27.416 0 0 0 5.467 12.049c.263.352 1.437 1.656 1.488 1.811a9.225 9.225 0 0 0 2.907.59c-.361-.367-.875-.618-1.271-.975-1.913-1.724-4.825-6.57-5.755-8.867-2.884-7.125-1.493-12.667-1.83-14.7-.276.443-.038.395-.423.959a3.309 3.309 0 0 0-.448.795c-.258.599-.531 1.208-.735 1.838z" transform="translate(-809.949 -1791.82)" style="fill:#440ca0;fill-rule:evenodd"/>
            <path data-name="Path 1253" d="m2397.34 1651.548 1.709.884c.809-.832 12.052-4.618 13.613-4.495l-.848-1.487a47.352 47.352 0 0 0-7.5 2.256c-1.184.432-2.4.911-3.566 1.4-.725.294-2.863 1.344-3.408 1.442z" transform="translate(-2134.513 -1465.946)" style="fill:#440ca0;fill-rule:evenodd"/>
            <path data-name="Path 1254" d="M2442.04 1682.839c.492.309 1.185.607 1.752.912.482-.892 8.949-3.8 10.151-3.5a5.607 5.607 0 0 0-.515-1.619c-2.078.627-3.893 1-5.995 1.776-1.256.461-4.533 2.309-5.393 2.431z" transform="translate(-2174.312 -1494.598)" style="fill:#440ca0;fill-rule:evenodd"/>
            <path data-name="Path 1255" d="m1001.505 1806.283-.665 1.757c3.169-.284 6.936-1.326 10.03-1.345l2.342-1.675a62.961 62.961 0 0 0-10.327 1.332c-1.491.261-1.185.348-1.38-.069z" transform="translate(-891.115 -1607.131)" style="fill:#440ca0;fill-rule:evenodd"/>
            <path data-name="Path 1256" d="m2488.2 1720.135 1.594 1.037c.6-1.036 5.808-2.1 7.139-2.157l-.678-1.515a43.507 43.507 0 0 0-4.391 1.119c-.738.281-3.164 1.472-3.664 1.516z" transform="translate(-2215.412 -1529.206)" style="fill:#440ca0;fill-rule:evenodd"/>
            <path data-name="Path 1257" d="m989.824 1838.093-.764 1.786c1.313-.247 4.727-1.318 6.137-.979.462.111.177-.121.433.238a18.637 18.637 0 0 0 2.193-1.919 29.338 29.338 0 0 0-7.213.84c-.459.138-.566.16-.786.034z" transform="translate(-880.627 -1635.798)" style="fill:#440ca0;fill-rule:evenodd"/>
            <path data-name="Path 1258" d="m2530.6 1752.389 1.309.971a10.3 10.3 0 0 1 4.2-1.484l-.631-1.446c-1.989.45-3.208 1.397-4.878 1.959z" transform="translate(-2253.163 -1558.526)" style="fill:#440ca0;fill-rule:evenodd"/>
            <path data-name="Path 1259" d="m977.78 1871.613-.75 1.447 3.713-.207 1.807-1.6z" transform="translate(-869.915 -1666.1)" style="fill:#440ca0;fill-rule:evenodd"/>
            <path data-name="Path 1260" d="m2564.81 1787.682 1.24 1.195a4.682 4.682 0 0 1 2.143-.854l-.556-1.343a16.249 16.249 0 0 1-2.827 1.002z" transform="translate(-2283.623 -1590.802)" style="fill:#440ca0;fill-rule:evenodd"/>
            <path data-name="Path 1261" d="m965.615 1899.059-.785 1.841 1.7-.334 1.744-1.665a5.949 5.949 0 0 0-1.454.13c-.094.021-.62.152-.687.157-.433.023-.267.078-.518-.129z" transform="translate(-859.053 -1690.719)" style="fill:#440ca0;fill-rule:evenodd"/>
            <path data-name="Path 1262" d="m2587.11 1814.647 1.15 1.219 1.082-.374-.577-1.373a3.729 3.729 0 0 1-1.655.528z" transform="translate(-2303.478 -1615.234)" style="fill:#440ca0;fill-rule:evenodd"/>
        </g>
        <path data-name="Path 1263" d="M838.587 1396.523a13.389 13.389 0 0 1-3.61 1.6c-2.166 1.393-5.686 1.857-8.073 2.718l-3.731.6c-1.628.085-3.3.431-5.052.464a65.571 65.571 0 0 1-9.016.024 17.939 17.939 0 0 1-3.344-.134l-5.249-.144-2.078-.135-1.846-.064-.09-.367c.012-.542.068-1.694-.4-2.051-1.1-.844-1.138.653-1.116 1.3l.49 15.115.089 1.688.01 16.371.033 1.762.132 9.979c.269 1.865-.769 3.325.515 4.826a17.357 17.357 0 0 1 3.5 2.236c-1.579.769-3.227 2.038-4.816 2.912-16.283 8.948-24.325 9.488-43.648 10.378a286.783 286.783 0 0 1-29.887-.672 120.551 120.551 0 0 1-13.444-2.013c-8-1.642-5.739-1.879-5.572-9.22a47.444 47.444 0 0 1 .618-5.45c.346-5.5 1.346-11.437 1.386-16.928l.172-2 .285-8.592-.015-8.626a25.761 25.761 0 0 0-.218-3.467 9.961 9.961 0 0 0-.249-1.562c-.242-.6-.83-.751-1.208-.163a10.517 10.517 0 0 0 .155 2.464l.1 3.524-1.509.483-1.811.543-6.545 1.683-2.2.465-5.706.9-2.741.3-.28-.019c-.872.285-5.326.058-6.735.166-1.277-.155-2.728-.133-4.059-.262-1.293-.126-2.526-.3-3.8-.469a9.226 9.226 0 0 1-2.907-.59 10.666 10.666 0 0 1-5.278-2.575 13.273 13.273 0 0 1-3.035-4.824c-2.055-5.191-.4-8.682.756-12.957.2-.63.477-1.239.737-1.845a3.31 3.31 0 0 1 .448-.795c.385-.565.147-.516.423-.959.542-1.626 2.514-3.81 2.923-5a22.089 22.089 0 0 1 2.32-2.633c.811-1.471 4.07-3.731 4.073-3.734.318-.41-.007-.351.543-.843a9.419 9.419 0 0 0 .731-.622 11.836 11.836 0 0 1 2.017-1.632 30.567 30.567 0 0 1 3.82-3.164l1.924-1.455 5.04-3.692c.478-.435 1.259-.835 1.8-1.262a25.184 25.184 0 0 0 2.339-1.4c.8-.475 1.593-.881 2.408-1.316 1.548-.826 3.4-1.94 4.953-2.635l2.359-1.209 15.438-8.124c.422-.352 1.016-.636 1.443-.924 1.612-.427 7.4-4.157 9.274-5.216l.968-.712 6.591-4.521a11.077 11.077 0 0 1 1.467-1c.38-.388 3.108-2.542 3.491-2.5 2.458.3 15.114 6.917 25.2 2.861 6.847-2.754 6.705-3.938 7.822-4.487l7.235 3.259 1.585.785a50.8 50.8 0 0 1 5.661 2.864c.535.263 1.191.537 1.649.8a71.234 71.234 0 0 0 7.615 3.706l3.412 1.352 6.179 2.148 2.409.722 4.65 1.264 3.222 1.042c2.307.678 10.456 4.31 12.165 5.717l2.756 1.341c.386.342 2.672 1.49 3.325 1.864 1.1.63 2.158 1.3 3.207 2.015a12.572 12.572 0 0 1 2.836 2.04c.525.342 2.48 2.19 2.592 2.221 1.2 1.14 3.884 3.986 4.611 5.526 2.039 3.728 4.883 8.313 4.139 12.771-.4 2.382-1.714 3.623-3.549 4.981a29.619 29.619 0 0 1-5.22 3.176zm-175.3-17.9-2.746 6.475c-1.274.189-12.592.363-14.751.392-2.139.031-13.876.474-14.884.269a59.632 59.632 0 0 1-2.662-6.418zm209.941-4.714-2.648 6.363-22.055.474c-.025-.043-2-5.954-2.078-6.289zm-193.3-4.51-2.342 1.675c-.678.666-.653-.111-1.351.887a2.567 2.567 0 0 1-1.208.97 18.627 18.627 0 0 1-2.193 1.919l-2.369 1.81-1.807 1.6-1.6 1.428-1.744 1.665-2.68 2.755.976-2.421.785-1.841.553-1.38.75-1.447.569-1.432.764-1.786.527-1.386.665-1.757c.712-1.492 5.233-2.1 6.834-2.335l8-1.093zm-15.5-7.044 3.2-.064c-.036 1.513-.179 2.924-.163 4.465.005.5.164 1.663.151 1.965a4.045 4.045 0 0 1-.819 1.262l-5.565.138zm-1.65.061-3.2 7.769-15.682.38 4.792-7.851zm178.708-4.063c.4.9 1.067 1.945 1.545 2.86.335.641 1.04 2.413 1.779 2.447 2.2.1-1.434-4.118-1.592-5.379l7.787-.1c.5.694 3.565 6.228 3.536 6.7l-11.948.28a42.4 42.4 0 0 1-2.8-6.8h1.692zm-6.357-6.339.847 1.487.966 2.041a5.607 5.607 0 0 1 .515 1.619l1.213 2.642.679 1.515.794 2.1.631 1.446 1.068 2.528.556 1.343.717 1.665.577 1.373a26.89 26.89 0 0 1 1.676 4.4l-2.758-4.021-1.15-1.219-1.2-1.339-1.24-1.195-2.442-2.046-1.309-.971-3.054-1.9-1.594-1.037-3.309-1.776c-.567-.3-1.26-.6-1.752-.912l-3.196-1.757-1.709-.884a5.266 5.266 0 0 1-1.81-.992 71.618 71.618 0 0 0 7.838-2.654c1.091-.442 6.982-2.874 7.687-2.891zm-170.05 8.824c.14-.591 3.183-8.344 3.641-8.49l-1.009 8.338a7.645 7.645 0 0 1-2.632.153zm45.429-9.257c.055 1.3-.358.97-2.893 2.394a18.324 18.324 0 0 1-3.494 1.741c-1.259-1.118-1.942-2.318-4.051-1.558-1.585.572-2.216 1.742-3.258 2.759-.857-.852-.2-1.848.26-2.728a18.371 18.371 0 0 1 1.318-2.4l12.119-.212zm128.637 5.262c-.576-.839-1.227-2.722-1.845-3.827-.67-1.2-1.514-2.516-2.065-3.682l1.318.022 4.038 7.519zm-127.045-6.78a48.992 48.992 0 0 1 .1-4.913c.157-3.627-.378-3.868 1.006-3.858 1.716.013 8.86-.13 9.874.023l.132 3.835c-.851.3-3.914 2.369-5.021 2.991-3.539 1.987-2.434 1.848-6.091 1.922zm-7.512.088c1.5-3.569 1.261-4.944 1.032-8.8l5.2-.031-.283 8.654a34.321 34.321 0 0 1-5.944.173zm20.028-8.891 4 .032a30.8 30.8 0 0 1-3.96 2.712zm110 6.575c-.519-1.3-1.177-2.347-1.794-3.579-.532-1.065-1.732-2.69-2.046-3.5l1.1.036 3.791 7.044zm-35.687 1.481a39.681 39.681 0 0 1-5.087-1.8c-2.537-.976-12.226-5.46-13.308-6.5l9.505-.039c.63.872.6 1.884 1.741 3.087 1.33 1.407 2.013.885 3.392.313l.687 1.55a4.3 4.3 0 0 0 1.385-.24 11.454 11.454 0 0 0-.925-2.312 2.354 2.354 0 0 1 .618-2.1c2.26 3.913 5.98 4.7 5.4 7.279a.6.6 0 0 1-.5.08c-.605-.059-2.41-.965-2.914.691zm-86.281-17.6a85.21 85.21 0 0 1 10.113.011 64.412 64.412 0 0 1 .176 8.054l-10.581.043zm-30.233 3.518c-.508 1.525-1.573 3.277-2.249 4.816-.278.635-1.477 1.941-.534 2.382 1.879.88 3.945-9.34 7.825-9.9a3.9 3.9 0 0 1 4.345 2.826c1.333 4.166 1.043.883-2.153 6.724-.542.988-3.186 3.446-2.6 4.245.645.888 1.535-.513 1.885-.964.936-1.206 2.092-2.925 2.956-4.218 1.424-2.131 4.926-6.123 7.49-6.755 4.7-1.16 6.285 13.011 3.745 15.089-.964.789-1.615.4-2.315-.378-.94-1.049-.535-1.148-.159-2.374.411-1.34 1.684-4.718.707-5.823-1.478-.539-.974 1.126-1.066 1.875-.083.666-.5 2-.662 2.8-.488 2.434-3.393 6.461-4.542 9.254-.616 1.5.419 4.085 2.281 4.042.555-.47.55-.931.984-1.476 1.456-1.826 3.663-2.733 4.357-.911-.287.316-13.3 7.069-14.889 7.9-.627.326-1.233.714-1.843 1.054a7.011 7.011 0 0 1-2.545.227l-9.882 1.42c-1.5.3-3.149.781-4.556 1.039-.221-8.005 1.228-15.773 2.765-23.52.281-1.417 1.089-5.8 2.761-6.021-.206 1-1.265 2.54-.531 3.263 1.206.743 1.581-3.031 2.967-4.6a6.518 6.518 0 0 1 5.457-2.018zm41.948-3.611 11.573.009c.052.765.079 1.539.116 2.306.054 1.139.27 1.129-.519 1.892a30.036 30.036 0 0 1-2.628 2.338c-1.488 1.125-1.391 1.582-3.406 1.575-1.611-.005-3.361.082-4.963 0zm-22.725.053 9.454-.028-.253 8.18-5.441-.005a11.722 11.722 0 0 0-1.384-3.849 8.236 8.236 0 0 0-2.454-2.714zm88.167 7.8-11.482.045c-.491-.33-.661-1.349-.857-1.969-.388-1.226-1.9-5.411-1.889-6.047l13.879.008c.716 1.091.122 2.567.055 3.815a37.914 37.914 0 0 0 .289 4.141zm-96.062-3.032c-1.231-3.928-1.08-2.99-2.977-4.732l9.364-.008-.049.98c-.83.4-1.5.117-3.55 1.523-.723.488-2.38 2.048-2.789 2.23zm-18.885 1.125c-.28-.817.61-2.17.937-2.993.351-.878.767-2 1.181-2.85l8.373.023a10.556 10.556 0 0 0-2.025 2.206 6.428 6.428 0 0 0-5.191.613c-2.389 1.197-2.49 2.532-3.277 2.994zM776.3 1338.9a55.761 55.761 0 0 1-10.269-4.948l-2.071-1.651a2.314 2.314 0 0 1-.583-.755c2.019-.047 8.987-.277 10.558.038zm-38.843-7.31 1.8.03a9.837 9.837 0 0 1-1.744 1.937zm93.526 7.692c-1.934.065-1.344-.05-2.515-1.426l-5.4-6.473 3.589.031c.402.428 4.09 7.178 4.326 7.863zm-118.137-14.39 9.79.039a43.384 43.384 0 0 1 .043 5.205l-10.047.025zm-10.858.018h9.288l-.179 5.258-9.4.01zm94.727 13.667c-.583-.793-1.232-2.253-2.245-1.881-.755.975.926 2.152 1.483 3.31-.911 1.51-1.425 3.481-2.445 3.423-1.168-.067-1.981-2.809-2.144-3.772a17.95 17.95 0 0 1 .93-10.229c.818-2.074 2.43-1.384 4.052-.686 3.026 1.3 4.425 3.157 6.244 5.616 1.039 1.406 2.018 3.6 2.8 2.655.8-.965-3.686-6.188-4.439-6.919.8-.861 1.283-3.936 3.149-3.754.9.088 3.075 2.426 3.583 3.2a41.681 41.681 0 0 1 2.523 4.372c.549 1.1 1.7 1.427 1.8.294.045-.538-2.546-4.68-3.081-5.49-.335-.51-.567-.557-.51-1.08.06-.555.87-1.944 1.4-2.076.833-.207 1.559.674 2.115 1.114 2.509 1.987 3.145 5.2 4.2 3.827.672-.877-.917-2.6.954-3.676.547.35 5.365 6.333 6.7 7.72.738.767 1.45 1.81 2.194 2.632a55.118 55.118 0 0 1 4.2 5.452c.7 1.016 3.25 5.436 3.139 6.434-.739.883-13.838 5.528-15.918 6.18-.709.223-3.138-1.032-3.994-1.357a57.757 57.757 0 0 0-4.122-1.4c-1.66-.491-7.549-1.83-8.516-2.57 1.25.109 2.516.744 2.945-.935a14.235 14.235 0 0 0-.33-3.421c-.272-.324-2-1.431-2.571-1.98a20.64 20.64 0 0 1-2.148-2.4c-.648-.833-1.314-1.749-1.945-2.606zM690.6 1324.932l9.83-.023-.284 5.167c-.648.277-9.468.124-11.019.113l1.473-5.257zm33.549-.068c1.563-.068 10.536-.218 11.479.038l.224 5.19h-11.594l-.109-5.226zm12.986-.043 5.258.056a7.023 7.023 0 0 1-1.86 5.21l-3.174-.015zm50.488 2.424a23.388 23.388 0 0 1 1.157 2.742l-13.772-.039a42.737 42.737 0 0 1-1.684-5.216l12.994-.025c.527.261 1.032 1.918 1.309 2.538zm-110.013 2.99c.38-1.443 1.892-3.975 1.909-5.263l9.487-.02-1.426 5.255zm-27.852 30.939c.274-.806 4.73-7.833 5.553-9.16 1.867-3.005 3.712-6.037 5.567-9.052s3.726-6.03 5.567-9.052l5.536-8.931 6.128.013-2.1 5.238c-.573.025-1.8-.18-2.058.455-.408 1.023.715 1.033 1.351 1.041a37.862 37.862 0 0 1-1.729 4.348c-.874 2.115-1.7 3.112-2.008 3.912-1.262.059-2.587.026-3.857.033-.729 0-3.049-.295-3.267.585-.32 1.29 2.05.923 2.854.92 1.2 0 2.5-.057 3.694 0-.339 2.207-2.488 7.129-3.487 9.3-1.376.118-3.078.1-4.482.108-.774.005-3.724-.225-4.073.458-.966 1.889 4.912.764 7.93 1.016l-3.529 8.474-13.587.288zm164.974-33.874c-.534-.443-.934-.983-1.437-1.446a9.6 9.6 0 0 1-1.4-1.213l20.825-.068 17.406 32.063-7.813.164c-.662-1.222-3.831-6.66-4.007-7.516.656-.005 2.993.126 2.165-1.206-.345-.557-2.5-.269-3.159-.3-.49-1.505-3.551-6.037-3.649-7.024 1.828 0 5.661.441 4.984-1.071-.351-.783-4.876-.387-5.907-.4l-4.268-7.886c1.1-.115 2.718.147 3.695-.168.425-.484.428-.737 0-1.218-.99-.311-3.339-.053-4.546-.146a23.758 23.758 0 0 1-1.181-2.126c-.392-.759-.794-1.743-1.724-.943-.335 1.06.81 2.1 1.143 3.08-5.209.339-4.036.045-6.31-2.557-2.355-2.687-2.517-3.012-4.817-.019zm-24.274 2.531a33.163 33.163 0 0 1-2.267-5.141h20.268l-1.193 2.027c-1.446-.877-2.491-2.712-4.543-1.482-2.175 1.3-2.262 3.3-2.751 3.99-1.852-1.581-6.007-3.943-8.136-1.774-.856.871-.796 1.635-1.378 2.382zm-87.029 88.215c0 4.214-.122 9.242-.543 13.411l-.109 1.772c-.426 6.88-1.27 13.575-1.86 20.407-.809 9.348-1.405 9.363 10.165 11.373 12.595 2.189 29.635 2.665 42.407 1.982 14.014-.749 24.116-1.3 36.919-7.738 2.455-1.233 4.922-2.458 7.248-3.927a23.311 23.311 0 0 0 3.277-2.212c1.711-2.1-.246-1.616-3.332-3.993-.772-.593-.507-1.275-.466-2.234.2-4.844-.113-11.68-.1-16.814l.016-1.62c-.339-4.111.2-8.667-.072-12.937-.271-4.207-.384-8.5-.411-12.719 1.34.21 8.4.385 8.707.544 2.477-.134 5.507.148 8.078.153a76.648 76.648 0 0 0 8-.323 46.54 46.54 0 0 0 13.224-3.2c4.486-1.816 12.736-5.394 14.089-10.6a11.126 11.126 0 0 0 .2-3.8c-.015-.793.406-.568.161-1.651a5.408 5.408 0 0 1-.262-1.615l16.86-.433c1.535-.035 4.292.084 5.655-.088.735-.583 1.647-3.282 2.064-4.28.23-.55 1.876-4.34 1.88-4.552.014-.65-14.086-22.1-15.114-23.716-6.682-10.528-13.721-20.909-20.317-31.479-.484.137-1.086.35-1.174.824a71.6 71.6 0 0 0 4.345 6.839c1.477 2.2 2.855 4.5 4.331 6.705 2.949 4.407 5.733 8.974 8.66 13.4s5.777 8.947 8.66 13.408c1.443 2.233 2.894 4.466 4.328 6.705.921 1.437 3.771 5.445 4.246 6.722l-27.285.6a48.643 48.643 0 0 1-2.607-6.293c2.968-.117 5.995-.2 8.964-.244 4.825-.071 4.938-.091 3.091-3.467l-19.082-34.984c-.534-.979-1.085-1.959-1.61-2.941-.8-1.494-.766-1.933-2.674-1.952-2.979-.028-5.993.018-8.976.023l-36 .088c-5.926.008-12.094-.129-17.992.081a5.024 5.024 0 0 0-1.358 1.471l4.014-.011a47.579 47.579 0 0 1 1.644 5.265c-2.606.019-5.216.011-7.823.019-.823 0-3.223.254-3.792-.167-.744-.55-.864-1.99-1.578-2.279l-.373.026c-1.685.773 1.828 4.219 2.376 4.868 1.8 2.128 3.953 3.1 4.469 3.666-1.432 1.638-4.23 2.864-6.272 3.655a16.51 16.51 0 0 1-8.273 1.382 41.217 41.217 0 0 1-8.542-1.4 69.185 69.185 0 0 1-7.383-2.4c.675-.895 4.009-4.343 5.32-5.982 3.3-4.131 2.135-5.388 2.36-8.7a17.688 17.688 0 0 1-2.617.85 12.555 12.555 0 0 1-3.184-.213c-21.046-.067-42.189.158-63.261.149-1.42 0-3.506-.408-4.3 1.053-1.171 2.161-4.587 7.52-5.975 9.749-.456.732-21.929 35.384-22.065 36.019a1.957 1.957 0 0 0 .717 1.727c.4.191 20.971-.5 23.131-.517a34.711 34.711 0 0 1-2.335 5.541l-35.352.708 39.565-60.368a1.887 1.887 0 0 0-1.461-1.63c.219 1.436-.512 1.969-1.288 3.16l-5.413 8.24c-7.345 10.9-14.234 22.075-21.689 33.068-3.56 5.25-7.371 11.591-10.809 16.5-.763 1.091-1.3 1.874-.713 3.241.456 1.059.93 2.115 1.385 3.177 2.119 4.952 1.295 4.172 4.949 4.129 8.749-.1 17.888-.44 26.738-.614-.42 1.988-2.553 5.7-3.405 7.849a26.332 26.332 0 0 0-2.073 9.207c.038 5.99 3.32 11.666 9.191 13.54 5.5 1.754 15.381 1.911 21.123 1.336a84.712 84.712 0 0 0 14.166-2.781c1.407-.381 3.2-1.015 4.578-1.239l.015 3.474z" transform="translate(-557.828 -1171.51)" style="fill:#000002;fill-rule:evenodd"/>
        <path data-name="Path 1264" d="M1176.74 343.544q-37.68.462-75.308.919t-75.279.92c-1.081.014-1.83.4-1.662.851.359.955.723 1.909 1.081 2.864.168.447 1.191.806 2.243.8q37.182-.066 74.366-.127t74.394-.126c1.107 0 1.985-.494 1.994-1.1.019-1.3.072-2.6.111-3.92.02-.611-.86-1.096-1.94-1.081zm-60.018-48.15c-17.671 1.7-35.4 3.4-53.039 5.094q-26.5 2.544-53.012 5.069c-1.192.114-2.019.574-1.856 1.035.336.943.7 1.9 1.052 2.852.169.448 1.274.733 2.437.633q26.215-2.281 52.431-4.565a70966.11 70966.11 0 0 1 52.486-4.575c1.218-.106 2.13-.645 2.076-1.207-.112-1.173-.163-2.358-.276-3.53-.054-.554-1.081-.922-2.3-.8zm-54.175-28.961c2.8-.415 5.623-.836 8.447-1.253 1.3-.193 2.405.081 2.493.6.189 1.1.366 2.2.554 3.3.089.52-.859 1.077-2.132 1.253-2.8.387-5.6.793-8.365 1.184-1.3.183-2.451-.079-2.548-.574-.208-1.08-.41-2.151-.637-3.231-.106-.512.885-1.086 2.187-1.279zm-28.057 4.174q2.95-.447 5.9-.886c1.273-.19 2.4.07 2.521.564.243 1.035.532 2.08.776 3.116.116.493-.832 1.032-2.078 1.207-1.939.273-3.905.553-5.844.828-1.3.184-2.442-.057-2.575-.54-.281-1.011-.549-2.036-.831-3.058-.136-.484.83-1.038 2.13-1.231zm167.593-24.926q-20.563 3.055-41.1 6.116c-1.276.192-2.364.84-2.355 1.437q.028 1.9.027 3.794c0 .585 1.052.917 2.328.736q20.313-2.884 40.686-5.749c1.273-.178 2.338-.84 2.382-1.471.094-1.357.183-2.69.277-4.047.042-.644-.943-1.009-2.246-.816zm-69.574 10.347q-24.681 3.666-49.328 7.336c-1.3.193-2.293.793-2.216 1.31.171 1.127.311 2.232.5 3.346.089.531 1.217.789 2.493.61l48.828-6.887c1.275-.18 2.271-.782 2.244-1.345-.057-1.23-.11-2.437-.167-3.655-.027-.577-1.083-.903-2.355-.715zm-112.009 16.66-20.717 3.07c-1.275.19-2.181.722-2.022 1.172.339.954.694 1.909 1.052 2.863.168.448 1.328.663 2.6.483l20.5-2.886c1.3-.184 2.219-.714 2.076-1.184-.3-1-.6-2-.886-3-.13-.473-1.303-.706-2.603-.518zm214.679-17.418c-3.656.48-7.316.952-10.968 1.437-1.278.17-2.348.863-2.41 1.506-.133 1.391-.255 2.759-.388 4.151-.061.642.912 1.038 2.188.885 3.6-.433 7.23-.878 10.829-1.322 1.248-.154 2.3-.841 2.382-1.494.17-1.427.329-2.829.5-4.243.08-.667-.887-1.083-2.132-.92zm-43.706 5.76c-5.678.744-11.382 1.51-17.032 2.253-1.245.164-2.263.783-2.272 1.391-.019 1.288-.065 2.587-.083 3.863-.009.61 1.027.976 2.243.828 5.6-.68 11.242-1.4 16.868-2.1 1.215-.151 2.291-.794 2.326-1.414q.113-2 .194-3.967c.028-.636-.997-1.018-2.243-.854zm-35.036 4.622q-31.2 4.095-62.318 8.208-31.158 4.108-62.317 8.2c-1.276.168-2.191.7-2.05 1.173.3 1.012.6 2.025.858 3.024.127.485 1.276.743 2.549.587q30.829-3.8 61.653-7.634 30.826-3.812 61.708-7.635c1.249-.155 2.244-.77 2.244-1.368 0-1.253.019-2.517 0-3.77-.007-.602-1.053-.952-2.326-.785zm-143.193 18.855c-3.3.436-6.566.856-9.8 1.287-1.248.167-2.135.668-1.967 1.116.359.954.715 1.91 1.052 2.863.16.449 1.3.7 2.549.54 3.211-.4 6.452-.8 9.694-1.2 1.245-.152 2.12-.653 1.966-1.126-.317-.976-.6-1.956-.941-2.944-.162-.458-1.333-.698-2.552-.537zm109.818-2.253q-21.729 2.48-43.511 4.989c-1.245.143-2.174.665-2.078 1.184.207 1.114.392 2.2.581 3.3.089.516 1.162.831 2.382.7q21.559-2.287 43.068-4.575c1.218-.129 2.169-.691 2.133-1.253-.076-1.2-.156-2.381-.25-3.576-.041-.563-1.106-.909-2.323-.77zm-58.911 6.737q-6.979.806-13.876 1.6c-1.245.143-2.171.657-2.049 1.139.266 1.059.537 2.08.8 3.127.123.481 1.219.784 2.438.656 4.569-.481 9.14-.977 13.737-1.46 1.191-.125 2.119-.645 2.022-1.15-.207-1.081-.437-2.15-.664-3.242-.102-.511-1.189-.811-2.407-.671zm168.065-19.234 33.984-3.886c1.218-.139 2.137.311 2.022 1.012-.245 1.494-.446 2.955-.693 4.438-.114.69-1.191 1.377-2.41 1.505q-16.825 1.774-33.623 3.564c-1.248.133-2.177-.3-2.1-.966.149-1.39.274-2.793.443-4.208.076-.667 1.131-1.316 2.378-1.46zm-93.893 10.76c13.324-1.524 26.7-3.071 39.994-4.587 13.323-1.52 26.7-3.062 40.05-4.587 1.245-.143 2.195.276 2.132.931-.131 1.391-.255 2.77-.387 4.151-.062.655-1.084 1.283-2.326 1.414-13.188 1.4-26.425 2.811-39.607 4.208s-26.394 2.808-39.578 4.208c-1.218.129-2.244-.23-2.272-.8-.056-1.207-.137-2.414-.194-3.644-.024-.582.945-1.152 2.189-1.294zm-100.733 11.52c-10.221 1.158-20.414 2.345-30.605 3.5-1.219.137-2.078.621-1.911 1.069.358.966.721 1.909 1.08 2.863.168.448 1.272.717 2.493.587q15.119-1.615 30.272-3.208c1.248-.133 2.128-.631 1.994-1.115-.282-1.023-.548-2.036-.831-3.07-.13-.489-1.245-.763-2.49-.626zm138.429-2.334q23.428-2.238 46.946-4.495c1.188-.114 2.1.345 2.049.989-.114 1.4-.285 2.806-.415 4.185-.062.668-1.109 1.278-2.271 1.379q-23.268 2.021-46.448 4.047c-1.22.107-2.169-.3-2.16-.908.019-1.287.064-2.575.082-3.862.011-.599.998-1.219 2.219-1.338zm-41.739 4.013c7.505-.712 14.986-1.429 22.49-2.15 1.22-.117 2.207.275 2.216.862.019 1.265.009 2.529.027 3.783.009.6-.97 1.159-2.161 1.264q-11.133.98-22.268 1.943c-1.192.1-2.2-.275-2.244-.839-.094-1.207-.118-2.415-.193-3.61-.036-.576.914-1.138 2.132-1.253zm-61.764 17.44c2.575-.2 5.152-.388 7.727-.587 1.164-.089 2.183.277 2.272.794.188 1.093.374 2.186.581 3.288.1.519-.775 1-1.911 1.081q-3.822.263-7.645.517c-1.163.079-2.193-.275-2.3-.782-.227-1.08-.458-2.149-.665-3.219-.095-.504.779-1.002 1.942-1.092zm-25.564 1.955 5.373-.413c1.191-.092 2.258.251 2.382.736.263 1.033.51 2.08.775 3.127.122.481-.748.957-1.911 1.035q-2.659.176-5.318.356c-1.135.076-2.193-.252-2.326-.736-.282-1.023-.6-2.045-.858-3.059-.124-.481.72-.957 1.884-1.046zm152.692-11.658q-18.736 1.432-37.419 2.864c-1.191.091-2.132.654-2.132 1.253 0 1.253.027 2.517.027 3.782 0 .587.969 1.01 2.134.931q18.486-1.245 37-2.483c1.164-.078 2.144-.667 2.188-1.3.094-1.357.184-2.7.277-4.047.049-.644-.883-1.092-2.074-1.001zm-63.4 4.84q-22.479 1.71-44.925 3.426c-1.163.089-2.074.61-1.993 1.139.168 1.1.355 2.219.526 3.334.078.517 1.135.88 2.27.8 14.79-.993 29.636-1.988 44.453-2.99 1.164-.078 2.076-.608 2.05-1.184-.056-1.218-.11-2.437-.166-3.644-.023-.574-1.023-.974-2.211-.881zm-102.035 7.784c-6.317.483-12.6.971-18.89 1.448-1.135.087-1.969.542-1.8.989.356.944.725 1.9 1.08 2.852.171.459 1.245.754 2.382.679 6.23-.419 12.436-.829 18.667-1.254 1.191-.081 2-.525 1.856-1-.3-1-.587-2.012-.887-3-.138-.472-1.217-.805-2.404-.714zm195.457-.276-22.325 1.253c-1.162.065-2.135.633-2.188 1.276a240.677 240.677 0 0 0-.3 4.082c-.045.644.859 1.122 1.994 1.069 7.367-.338 14.706-.675 22.073-1.023 1.164-.055 2.137-.633 2.217-1.3.169-1.413.328-2.827.5-4.254.077-.665-.805-1.168-1.968-1.104zm-39.745 2.219c-5.153.282-10.331.591-15.482.874-1.136.062-2.06.61-2.078 1.219-.037 1.3-.037 2.575-.056 3.862-.009.61.916 1.063 2.022 1.012 5.1-.236 10.22-.487 15.317-.713 1.135-.05 2.1-.6 2.132-1.23.076-1.333.12-2.655.194-3.99.039-.631-.884-1.098-2.046-1.035zm-31.852 1.783q-28.335 1.575-56.668 3.173-28.29 1.577-56.64 3.162c-1.135.063-1.965.494-1.828.989.278 1.011.583 2.023.886 3.035.14.471 1.192.81 2.3.759q28-1.286 56-2.6t56.031-2.586c1.135-.052 2.049-.576 2.049-1.173 0-1.264-.027-2.517-.027-3.793.005-.6-.937-1.032-2.099-.969zm-130.2 7.277c-2.962.166-5.954.337-8.89.494-1.136.06-1.944.483-1.773.943.355.955.725 1.908 1.08 2.862.171.458 1.218.763 2.326.713 2.936-.134 5.873-.26 8.835-.4 1.108-.054 1.9-.458 1.745-.931-.317-.976-.653-1.965-.969-2.944-.153-.482-1.218-.801-2.354-.738zm99.958 6.576q-19.734.682-39.5 1.38c-1.108.038-1.945.505-1.856 1.023.189 1.093.387 2.2.555 3.288.081.53 1.08.924 2.187.9q19.486-.477 39.025-.966c1.108-.027 1.976-.517 1.939-1.092-.075-1.184-.174-2.38-.249-3.564-.028-.579-.966-1.008-2.101-.97zm-53.455 1.875c-4.209.154-8.42.292-12.574.436-1.107.038-1.926.47-1.8.966.261 1.033.523 2.081.748 3.116.107.494 1.136.877 2.216.851 4.127-.1 8.282-.211 12.436-.31 1.08-.026 1.927-.459 1.828-.978-.2-1.068-.429-2.149-.637-3.23-.1-.505-1.107-.892-2.216-.851zm152.443-5.335q15.414-.529 30.827-1.07c1.107-.037 1.972.5 1.856 1.2-.243 1.472-.476 2.955-.72 4.426-.116.7-1.136 1.308-2.216 1.334q-15.246.373-30.494.759c-1.08.026-1.935-.494-1.855-1.161.169-1.4.293-2.807.443-4.208.071-.676 1.052-1.244 2.16-1.276zm-85.167 2.978q18.153-.631 36.31-1.265t36.31-1.264c1.108-.038 1.973.46 1.911 1.115-.132 1.38-.238 2.772-.387 4.151-.071.656-1.025 1.214-2.1 1.241q-17.948.459-35.9.886-17.946.447-35.895.9c-1.08.026-2.031-.425-2.049-1-.038-1.218-.11-2.426-.167-3.644-.026-.574.858-1.077 1.967-1.115zm-91.372 3.2q-13.876.475-27.753.966c-1.107.039-1.885.45-1.717.9.357.955.718 1.909 1.052 2.852.163.46 1.192.809 2.3.782l27.42-.679c1.136-.029 1.917-.449 1.8-.943-.242-1.012-.568-2.045-.831-3.07-.124-.481-1.137-.843-2.272-.8zm142.334 8.979q10.179-.118 20.358-.252c1.08-.014 1.917.505 1.855 1.161-.131 1.391-.275 2.782-.387 4.162-.054.656-.97 1.171-2.05 1.173q-10.053.013-20.108.034c-1.08 0-1.937-.494-1.911-1.127.056-1.333.137-2.655.194-4 .027-.627.969-1.143 2.049-1.157z" transform="translate(-888.359 -218.701)" style="fill:#6b27e8"/>
        <path data-name="Path 1265" d="M1312.449 563c.3 1.486.206 2.479 1.287 3.7 1.244 1.4 1.885 1.142 3 1.943a12.554 12.554 0 0 0 3.184.213 17.687 17.687 0 0 0 2.617-.85l.738-1.27c2.277 1.993 3.3 3.6 6.878 3.756 1.689.075 1.688-.577 4.47.838a12.962 12.962 0 0 0 3.363 1.306c.573.206.105-.073.5.282l.373-.026c.449-.181 1.7-.11 2.372-.247a8.9 8.9 0 0 0 1.943-.66c1.017-.473 2.507-1.666 3.22-1.92a5.024 5.024 0 0 1 1.358-1.471c.269-.826.814-1.558 1.056-2.414a9.5 9.5 0 0 0-.03-2.8l.779-.148c.289-.292 3.276-1.649 4.076-2.163 2.822-1.814 4.856-4.818 3.255-8.135-.921-1.908-1.809-1.931-2.975-3.2.572-.747 3.181-1.853 4.84-4.37 1.9-2.888 1.139-4.177.223-7.067-.516-1.628.1-2.2 1.3-3.13a40.55 40.55 0 0 1 2.646-1.905c6.782-4.453 15.789-10.012 19.777-17.193a9.665 9.665 0 0 0 1.152-3.432c.178-1.82-.2-2.065-1.245-3.314.429-.863 8.194-8.335 9.554-9.715a47.936 47.936 0 0 0 8.225-11.089c2.145-4.278 3.775-10.832-.66-14.283-6.352-4.942-12.725.7-14.262 1.023-2.064-1.957-4.027-4.138-6.549-5.456-5.84-3.055-13.944-1.392-19.728 1.108-6.136 2.654-2.018 2.385-9.581 2.42-9.274.042-19.209 3.4-25.3 10.695-.9 1.081-1.748 2.209-2.6 3.334-3.537 4.684.681 4.363-8.2 2.775a26.89 26.89 0 0 0-6.663-.524c-7.287.536-13.835 5.079-18.5 10.445a28.593 28.593 0 0 0-3.156 4.155c-2.262 3.759-.811 4.281-.727 5.34-1.82 1.718-3.551 2.466-5.224 4.705-3.209 4.3-4.22 10.119.486 13.924a33.3 33.3 0 0 0 2.813 2.15c.836.547 2.5 1.34 3.126 1.888-.194 2.878-.807 1.73.089 6.221a14.262 14.262 0 0 0 1.841 4.9c2.573 3.985 6.451 5.263 7.447 6.117.1 3.028-.157 3.5 2 5.809a18.518 18.518 0 0 0 4.544 3.18 35.354 35.354 0 0 0 5.587 2.149c3.032.906 5.083.678 5.281 2.406z" transform="translate(-1136.557 -416.816)" style="fill-rule:evenodd"/>
    </g>
</svg>
